<svg xmlns="http://www.w3.org/2000/svg" width="52" height="52" fill="none" viewBox="0 0 52 52"><path fill="#000" d="M44.0295 44.3681C39.1295 49.1007 32.5668 51.7193 25.7548 51.6602C18.9428 51.601 12.4265 48.8686 7.60952 44.0516C2.79252 39.2346 0.0601766 32.7184 0.000982131 25.9064C-0.0582124 19.0944 2.56048 12.5316 7.29304 7.63165C12.193 2.89909 18.7558 0.280403 25.5678 0.339596C32.3798 0.398792 38.896 3.13114 43.713 7.94814C48.53 12.7651 51.2623 19.2814 51.3215 26.0934C51.3807 32.9054 48.762 39.4681 44.0295 44.3681ZM42.5746 9.08656C39.2305 5.74719 34.9715 3.47411 30.3358 2.5546C25.7002 1.63508 20.896 2.1104 16.5305 3.92049C12.1649 5.73058 8.43395 8.79419 5.80906 12.7241C3.18417 16.6541 1.78319 21.2739 1.78319 25.9999C1.78319 30.7258 3.18417 35.3457 5.80906 39.2756C8.43395 43.2056 12.1649 46.2692 16.5305 48.0793C20.896 49.8893 25.7002 50.3647 30.3358 49.4452C34.9715 48.5256 39.2305 46.2526 42.5746 42.9132C44.8039 40.6967 46.573 38.0614 47.7803 35.1588C48.9875 32.2562 49.609 29.1435 49.609 25.9999C49.609 22.8562 48.9875 19.7436 47.7803 16.841C46.573 13.9383 44.8039 11.303 42.5746 9.08656ZM33.975 31.196V18.7253C33.975 18.4497 33.8655 18.1854 33.6706 17.9905C33.4757 17.7956 33.2114 17.6861 32.9358 17.6861H20.4652C20.1895 17.6861 19.9252 17.7956 19.7303 17.9905C19.5354 18.1854 19.4259 18.4497 19.4259 18.7253C19.4259 19.0009 19.5354 19.2653 19.7303 19.4602C19.9252 19.6551 20.1895 19.7646 20.4652 19.7646H30.4157L17.6593 32.547C17.5092 32.7471 17.4363 32.9946 17.454 33.2442C17.4718 33.4937 17.5789 33.7284 17.7558 33.9053C17.9327 34.0822 18.1674 34.1894 18.417 34.2071C18.6665 34.2248 18.914 34.152 19.1142 34.0019L31.8966 21.2454V31.196C31.8966 31.4716 32.0061 31.7359 32.201 31.9308C32.3959 32.1257 32.6602 32.2352 32.9358 32.2352C33.2114 32.2352 33.4757 32.1257 33.6706 31.9308C33.8655 31.7359 33.975 31.4716 33.975 31.196Z"/></svg>