<svg xmlns="http://www.w3.org/2000/svg" width="370" height="140" fill="none" viewBox="0 0 370 140"><rect width="244.642" height="126.821" x="124.23" y="6.409" fill="#FFFCF7" stroke="#101010" stroke-width=".818" rx="20.046"/><ellipse cx="339.008" cy="34.637" fill="#101010" rx="12.273" ry="12.273"/><path fill="#FFFCF7" d="M334.139 32.3398C334.198 31.5656 334.497 30.9597 335.035 30.522C335.574 30.0844 336.273 29.8656 337.131 29.8656C337.703 29.8656 338.196 29.9708 338.608 30.1812C339.029 30.3832 339.344 30.6609 339.555 31.0144C339.774 31.3678 339.883 31.7676 339.883 32.2136C339.883 32.7354 339.731 33.1856 339.429 33.5643C339.134 33.9431 338.747 34.1871 338.267 34.2965V34.3596C338.814 34.4943 339.248 34.7594 339.567 35.1549C339.887 35.5505 340.047 36.068 340.047 36.7076C340.047 37.1873 339.938 37.6207 339.719 38.0079C339.5 38.3866 339.172 38.6853 338.734 38.9042C338.297 39.123 337.771 39.2324 337.156 39.2324C336.264 39.2324 335.532 39.0009 334.96 38.5381C334.387 38.0668 334.068 37.4019 334 36.5435H335.111C335.17 37.0485 335.376 37.4608 335.73 37.7806C336.083 38.1004 336.555 38.2603 337.144 38.2603C337.733 38.2603 338.179 38.1089 338.482 37.8059C338.793 37.4945 338.949 37.0948 338.949 36.6066C338.949 35.9755 338.738 35.521 338.318 35.2433C337.897 34.9656 337.261 34.8267 336.411 34.8267H336.121V33.8673H336.424C337.198 33.8589 337.783 33.7327 338.179 33.4886C338.574 33.2361 338.772 32.849 338.772 32.3272C338.772 31.8812 338.625 31.5235 338.33 31.2542C338.044 30.9849 337.632 30.8503 337.093 30.8503C336.571 30.8503 336.151 30.9849 335.831 31.2542C335.511 31.5235 335.322 31.8854 335.263 32.3398H334.139Z"/><rect width="244.642" height="126.821" x="65.32" y="6.409" fill="#101010" stroke="#101010" stroke-width=".818" rx="20.046"/><ellipse cx="280.097" cy="34.637" fill="#FFFCF7" rx="12.273" ry="12.273"/><path fill="#101010" d="M275.043 38.2477C276.112 37.3893 276.949 36.6866 277.555 36.1396C278.161 35.5841 278.67 35.0076 279.083 34.4101C279.503 33.8042 279.714 33.2109 279.714 32.6302C279.714 32.0832 279.579 31.654 279.31 31.3426C279.049 31.0228 278.624 30.8629 278.035 30.8629C277.463 30.8629 277.017 31.0438 276.697 31.4057C276.385 31.7592 276.217 32.2346 276.192 32.8322H275.081C275.115 31.8896 275.401 31.1616 275.939 30.6483C276.478 30.1349 277.172 29.8782 278.022 29.8782C278.889 29.8782 279.575 30.1181 280.08 30.5978C280.593 31.0775 280.85 31.7381 280.85 32.5797C280.85 33.2782 280.64 33.9599 280.219 34.6247C279.806 35.2812 279.335 35.8618 278.805 36.3668C278.275 36.8633 277.597 37.444 276.772 38.1089H281.115V39.0683H275.043V38.2477Z"/><g filter="url(#filter0_d_45_55)"><rect width="245.46" height="127.639" x="6" y="6" fill="#FFFCF7" rx="20.455"/></g><ellipse cx="36.273" cy="34.637" fill="#101010" rx="12.273" ry="12.273"/><path fill="#FFFCF7" d="M34.2985 31.0901V30.0423H36.6718V39.1693H35.5104V31.0901H34.2985Z"/><path fill="#101010" d="M72.1286 28.6606C72.937 28.6606 73.6355 28.813 74.2241 29.118C74.8197 29.4158 75.2735 29.8448 75.5855 30.405C75.9046 30.9652 76.0642 31.6247 76.0642 32.3834C76.0642 33.1422 75.9046 33.8016 75.5855 34.3618C75.2735 34.9149 74.8197 35.3404 74.2241 35.6382C73.6355 35.9289 72.937 36.0743 72.1286 36.0743H69.8205V28.6606H72.1286ZM72.1286 35.2766C73.0859 35.2766 73.8163 35.0248 74.3198 34.5214C74.8233 34.0108 75.075 33.2982 75.075 32.3834C75.075 31.4616 74.8197 30.7418 74.3091 30.2242C73.8057 29.7065 73.0788 29.4477 72.1286 29.4477H70.7884V35.2766H72.1286ZM82.6592 32.9365C82.6592 33.1209 82.6486 33.3159 82.6273 33.5215H77.9685C78.0039 34.0959 78.1989 34.5462 78.5535 34.8724C78.9151 35.1915 79.3512 35.351 79.8618 35.351C80.2802 35.351 80.6276 35.2553 80.9042 35.0638C81.1878 34.8653 81.3864 34.6029 81.4998 34.2767H82.5422C82.3862 34.8369 82.0742 35.2943 81.6062 35.6488C81.1382 35.9963 80.5567 36.17 79.8618 36.17C79.3087 36.17 78.8123 36.0459 78.3727 35.7978C77.9401 35.5496 77.5997 35.1986 77.3516 34.7447C77.1034 34.2838 76.9793 33.752 76.9793 33.1492C76.9793 32.5465 77.0998 32.0182 77.3409 31.5644C77.582 31.1106 77.9188 30.7631 78.3514 30.522C78.791 30.2738 79.2945 30.1497 79.8618 30.1497C80.4149 30.1497 80.9042 30.2703 81.3296 30.5114C81.7551 30.7525 82.0813 31.0857 82.3082 31.5112C82.5422 31.9296 82.6592 32.4047 82.6592 32.9365ZM81.6594 32.7344C81.6594 32.3657 81.5778 32.0501 81.4147 31.7878C81.2516 31.5183 81.0283 31.3162 80.7446 31.1815C80.4681 31.0396 80.1596 30.9687 79.8192 30.9687C79.33 30.9687 78.9116 31.1247 78.5641 31.4367C78.2238 31.7488 78.0288 32.1813 77.9791 32.7344H81.6594ZM83.5752 33.1492C83.5752 32.5465 83.6958 32.0218 83.9369 31.575C84.178 31.1212 84.5112 30.7702 84.9367 30.522C85.3693 30.2738 85.8621 30.1497 86.4152 30.1497C87.1314 30.1497 87.72 30.3234 88.1809 30.6709C88.6489 31.0184 88.9573 31.5006 89.1063 32.1175H88.0639C87.9646 31.7629 87.7696 31.4828 87.4789 31.2772C87.1952 31.0716 86.8407 30.9687 86.4152 30.9687C85.8621 30.9687 85.4154 31.1602 85.075 31.5431C84.7346 31.9189 84.5644 32.4543 84.5644 33.1492C84.5644 33.8513 84.7346 34.3937 85.075 34.7766C85.4154 35.1596 85.8621 35.351 86.4152 35.351C86.8407 35.351 87.1952 35.2517 87.4789 35.0532C87.7625 34.8546 87.9575 34.571 88.0639 34.2023H89.1063C88.9503 34.7979 88.6382 35.2766 88.1702 35.6382C87.7022 35.9928 87.1172 36.17 86.4152 36.17C85.8621 36.17 85.3693 36.0459 84.9367 35.7978C84.5112 35.5496 84.178 35.1986 83.9369 34.7447C83.6958 34.2909 83.5752 33.7591 83.5752 33.1492ZM92.8187 29.2669V28.384H94.8184V36.0743H93.8398V29.2669H92.8187ZM96.364 35.2978C97.2646 34.5745 97.9701 33.9824 98.4807 33.5215C98.9912 33.0535 99.4203 32.5678 99.7677 32.0643C100.122 31.5537 100.3 31.0538 100.3 30.5645C100.3 30.1036 100.186 29.742 99.9592 29.4796C99.7394 29.2101 99.3813 29.0754 98.8849 29.0754C98.4027 29.0754 98.0269 29.2279 97.7574 29.5328C97.495 29.8306 97.3532 30.2313 97.3319 30.7347H96.3959C96.4243 29.9405 96.6654 29.3272 97.1192 28.8946C97.573 28.462 98.158 28.2458 98.8742 28.2458C99.6046 28.2458 100.183 28.4479 100.608 28.8521C101.041 29.2562 101.257 29.8129 101.257 30.522C101.257 31.1106 101.08 31.6849 100.725 32.2451C100.378 32.7982 99.9804 33.2875 99.5337 33.713C99.087 34.1314 98.5161 34.6206 97.8212 35.1808H101.48V35.9892H96.364V35.2978ZM103.759 34.7341L102.567 37.5953H101.918L102.695 34.7341H103.759ZM107.426 35.2978C108.327 34.5745 109.033 33.9824 109.543 33.5215C110.054 33.0535 110.483 32.5678 110.83 32.0643C111.185 31.5537 111.362 31.0538 111.362 30.5645C111.362 30.1036 111.249 29.742 111.022 29.4796C110.802 29.2101 110.444 29.0754 109.947 29.0754C109.465 29.0754 109.089 29.2279 108.82 29.5328C108.558 29.8306 108.416 30.2313 108.394 30.7347H107.458C107.487 29.9405 107.728 29.3272 108.182 28.8946C108.636 28.462 109.221 28.2458 109.937 28.2458C110.667 28.2458 111.245 28.4479 111.67 28.8521C112.103 29.2562 112.319 29.8129 112.319 30.522C112.319 31.1106 112.142 31.6849 111.788 32.2451C111.44 32.7982 111.043 33.2875 110.596 33.713C110.149 34.1314 109.579 34.6206 108.884 35.1808H112.543V35.9892H107.426V35.2978ZM113.662 32.1494C113.662 30.9297 113.86 29.9795 114.257 29.2988C114.654 28.611 115.349 28.267 116.342 28.267C117.328 28.267 118.019 28.611 118.416 29.2988C118.813 29.9795 119.012 30.9297 119.012 32.1494C119.012 33.3903 118.813 34.3547 118.416 35.0426C118.019 35.7304 117.328 36.0743 116.342 36.0743C115.349 36.0743 114.654 35.7304 114.257 35.0426C113.86 34.3547 113.662 33.3903 113.662 32.1494ZM118.055 32.1494C118.055 31.5325 118.012 31.0113 117.927 30.5858C117.849 30.1533 117.682 29.8058 117.427 29.5434C117.179 29.2811 116.817 29.1499 116.342 29.1499C115.86 29.1499 115.491 29.2811 115.236 29.5434C114.988 29.8058 114.821 30.1533 114.736 30.5858C114.658 31.0113 114.619 31.5325 114.619 32.1494C114.619 32.7876 114.658 33.323 114.736 33.7555C114.821 34.1881 114.988 34.5355 115.236 34.7979C115.491 35.0603 115.86 35.1915 116.342 35.1915C116.817 35.1915 117.179 35.0603 117.427 34.7979C117.682 34.5355 117.849 34.1881 117.927 33.7555C118.012 33.323 118.055 32.7876 118.055 32.1494ZM120.224 35.2978C121.124 34.5745 121.83 33.9824 122.34 33.5215C122.851 33.0535 123.28 32.5678 123.627 32.0643C123.982 31.5537 124.159 31.0538 124.159 30.5645C124.159 30.1036 124.046 29.742 123.819 29.4796C123.599 29.2101 123.241 29.0754 122.745 29.0754C122.262 29.0754 121.887 29.2279 121.617 29.5328C121.355 29.8306 121.213 30.2313 121.192 30.7347H120.256C120.284 29.9405 120.525 29.3272 120.979 28.8946C121.433 28.462 122.018 28.2458 122.734 28.2458C123.464 28.2458 124.042 28.4479 124.468 28.8521C124.9 29.2562 125.117 29.8129 125.117 30.522C125.117 31.1106 124.939 31.6849 124.585 32.2451C124.237 32.7982 123.84 33.2875 123.393 33.713C122.947 34.1314 122.376 34.6206 121.681 35.1808H125.34V35.9892H120.224V35.2978ZM126.342 35.2978C127.242 34.5745 127.948 33.9824 128.458 33.5215C128.969 33.0535 129.398 32.5678 129.746 32.0643C130.1 31.5537 130.277 31.0538 130.277 30.5645C130.277 30.1036 130.164 29.742 129.937 29.4796C129.717 29.2101 129.359 29.0754 128.863 29.0754C128.38 29.0754 128.005 29.2279 127.735 29.5328C127.473 29.8306 127.331 30.2313 127.31 30.7347H126.374C126.402 29.9405 126.643 29.3272 127.097 28.8946C127.551 28.462 128.136 28.2458 128.852 28.2458C129.582 28.2458 130.16 28.4479 130.586 28.8521C131.018 29.2562 131.235 29.8129 131.235 30.522C131.235 31.1106 131.057 31.6849 130.703 32.2451C130.355 32.7982 129.958 33.2875 129.512 33.713C129.065 34.1314 128.494 34.6206 127.799 35.1808H131.458V35.9892H126.342V35.2978Z"/><path fill="#000" d="M72.7636 59.5746V72.1389H70.2435V59.5746H72.7636ZM80.7795 62.0227C81.9675 62.0227 82.9276 62.4007 83.6596 63.1567C84.3916 63.9007 84.7576 64.9447 84.7576 66.2888V72.1389H82.2376V66.6308C82.2376 65.8388 82.0396 65.2328 81.6435 64.8127C81.2475 64.3807 80.7075 64.1647 80.0235 64.1647C79.3275 64.1647 78.7755 64.3807 78.3675 64.8127C77.9715 65.2328 77.7735 65.8388 77.7735 66.6308V72.1389H75.2534V62.1667H77.7735V63.4087C78.1095 62.9767 78.5355 62.6407 79.0515 62.4007C79.5795 62.1487 80.1555 62.0227 80.7795 62.0227ZM86.506 67.1168C86.506 66.1088 86.704 65.2148 87.1001 64.4347C87.5081 63.6547 88.0541 63.0547 88.7381 62.6347C89.4341 62.2147 90.2081 62.0047 91.0602 62.0047C91.8042 62.0047 92.4522 62.1547 93.0042 62.4547C93.5682 62.7547 94.0182 63.1327 94.3542 63.5887V62.1667H96.8923V72.1389H94.3542V70.6809C94.0302 71.1489 93.5802 71.5389 93.0042 71.8509C92.4402 72.1509 91.7862 72.3009 91.0422 72.3009C90.2021 72.3009 89.4341 72.0849 88.7381 71.6529C88.0541 71.2209 87.5081 70.6149 87.1001 69.8349C86.704 69.0428 86.506 68.1368 86.506 67.1168ZM94.3542 67.1528C94.3542 66.5408 94.2342 66.0188 93.9942 65.5868C93.7542 65.1428 93.4302 64.8067 93.0222 64.5787C92.6142 64.3387 92.1762 64.2187 91.7082 64.2187C91.2402 64.2187 90.8081 64.3327 90.4121 64.5607C90.0161 64.7887 89.6921 65.1248 89.4401 65.5688C89.2001 66.0008 89.0801 66.5168 89.0801 67.1168C89.0801 67.7168 89.2001 68.2448 89.4401 68.7008C89.6921 69.1448 90.0161 69.4869 90.4121 69.7269C90.8201 69.9669 91.2522 70.0869 91.7082 70.0869C92.1762 70.0869 92.6142 69.9729 93.0222 69.7449C93.4302 69.5049 93.7542 69.1688 93.9942 68.7368C94.2342 68.2928 94.3542 67.7648 94.3542 67.1528ZM108.768 62.1667V72.1389H106.23V70.8789C105.906 71.3109 105.48 71.6529 104.952 71.9049C104.436 72.1449 103.872 72.2649 103.26 72.2649C102.48 72.2649 101.79 72.1029 101.19 71.7789C100.59 71.4429 100.116 70.9569 99.7676 70.3209C99.4316 69.6729 99.2636 68.9048 99.2636 68.0168V62.1667H101.784V67.6568C101.784 68.4488 101.982 69.0608 102.378 69.4929C102.774 69.9129 103.314 70.1229 103.998 70.1229C104.694 70.1229 105.24 69.9129 105.636 69.4929C106.032 69.0608 106.23 68.4488 106.23 67.6568V62.1667H108.768ZM115.16 62.0047C115.904 62.0047 116.558 62.1547 117.122 62.4547C117.686 62.7427 118.13 63.1207 118.454 63.5887V62.1667H120.992V72.2109C120.992 73.1349 120.806 73.957 120.434 74.677C120.062 75.409 119.504 75.985 118.76 76.405C118.016 76.837 117.116 77.053 116.06 77.053C114.644 77.053 113.48 76.723 112.568 76.063C111.668 75.403 111.158 74.503 111.038 73.3629H113.54C113.672 73.819 113.954 74.179 114.386 74.443C114.83 74.719 115.364 74.857 115.988 74.857C116.72 74.857 117.314 74.635 117.77 74.191C118.226 73.759 118.454 73.0989 118.454 72.2109V70.6629C118.13 71.1309 117.68 71.5209 117.104 71.8329C116.54 72.1449 115.892 72.3009 115.16 72.3009C114.32 72.3009 113.552 72.0849 112.856 71.6529C112.16 71.2209 111.608 70.6149 111.2 69.8349C110.804 69.0428 110.606 68.1368 110.606 67.1168C110.606 66.1088 110.804 65.2148 111.2 64.4347C111.608 63.6547 112.154 63.0547 112.838 62.6347C113.534 62.2147 114.308 62.0047 115.16 62.0047ZM118.454 67.1528C118.454 66.5408 118.334 66.0188 118.094 65.5868C117.854 65.1428 117.53 64.8067 117.122 64.5787C116.714 64.3387 116.276 64.2187 115.808 64.2187C115.34 64.2187 114.908 64.3327 114.512 64.5607C114.116 64.7887 113.792 65.1248 113.54 65.5688C113.3 66.0008 113.18 66.5168 113.18 67.1168C113.18 67.7168 113.3 68.2448 113.54 68.7008C113.792 69.1448 114.116 69.4869 114.512 69.7269C114.92 69.9669 115.352 70.0869 115.808 70.0869C116.276 70.0869 116.714 69.9729 117.122 69.7449C117.53 69.5049 117.854 69.1688 118.094 68.7368C118.334 68.2928 118.454 67.7648 118.454 67.1528ZM132.868 62.1667V72.1389H130.33V70.8789C130.006 71.3109 129.58 71.6529 129.052 71.9049C128.536 72.1449 127.972 72.2649 127.36 72.2649C126.58 72.2649 125.89 72.1029 125.29 71.7789C124.69 71.4429 124.216 70.9569 123.868 70.3209C123.532 69.6729 123.364 68.9048 123.364 68.0168V62.1667H125.884V67.6568C125.884 68.4488 126.082 69.0608 126.478 69.4929C126.874 69.9129 127.414 70.1229 128.098 70.1229C128.794 70.1229 129.34 69.9129 129.736 69.4929C130.132 69.0608 130.33 68.4488 130.33 67.6568V62.1667H132.868ZM137.874 63.7147C138.198 63.1867 138.618 62.7727 139.134 62.4727C139.663 62.1727 140.263 62.0227 140.935 62.0227V64.6687H140.269C139.476 64.6687 138.876 64.8547 138.468 65.2268C138.072 65.5988 137.874 66.2468 137.874 67.1708V72.1389H135.354V62.1667H137.874V63.7147ZM141.984 67.1168C141.984 66.1088 142.182 65.2148 142.578 64.4347C142.986 63.6547 143.532 63.0547 144.216 62.6347C144.912 62.2147 145.686 62.0047 146.538 62.0047C147.282 62.0047 147.93 62.1547 148.482 62.4547C149.046 62.7547 149.496 63.1327 149.832 63.5887V62.1667H152.37V72.1389H149.832V70.6809C149.508 71.1489 149.058 71.5389 148.482 71.8509C147.918 72.1509 147.264 72.3009 146.52 72.3009C145.68 72.3009 144.912 72.0849 144.216 71.6529C143.532 71.2209 142.986 70.6149 142.578 69.8349C142.182 69.0428 141.984 68.1368 141.984 67.1168ZM149.832 67.1528C149.832 66.5408 149.712 66.0188 149.472 65.5868C149.232 65.1428 148.908 64.8067 148.5 64.5787C148.092 64.3387 147.654 64.2187 147.186 64.2187C146.718 64.2187 146.286 64.3327 145.89 64.5607C145.494 64.7887 145.17 65.1248 144.918 65.5688C144.678 66.0008 144.558 66.5168 144.558 67.1168C144.558 67.7168 144.678 68.2448 144.918 68.7008C145.17 69.1448 145.494 69.4869 145.89 69.7269C146.298 69.9669 146.73 70.0869 147.186 70.0869C147.654 70.0869 148.092 69.9729 148.5 69.7449C148.908 69.5049 149.232 69.1688 149.472 68.7368C149.712 68.2928 149.832 67.7648 149.832 67.1528ZM157.765 64.2367V69.0608C157.765 69.3969 157.843 69.6429 157.999 69.7989C158.167 69.9429 158.443 70.0149 158.828 70.0149H159.998V72.1389H158.413C156.289 72.1389 155.227 71.1069 155.227 69.0428V64.2367H154.039V62.1667H155.227V59.7006H157.765V62.1667H159.998V64.2367H157.765ZM163.088 60.9787C162.644 60.9787 162.272 60.8407 161.972 60.5646C161.684 60.2766 161.54 59.9226 161.54 59.5026C161.54 59.0826 161.684 58.7346 161.972 58.4586C162.272 58.1706 162.644 58.0266 163.088 58.0266C163.532 58.0266 163.898 58.1706 164.186 58.4586C164.486 58.7346 164.636 59.0826 164.636 59.5026C164.636 59.9226 164.486 60.2766 164.186 60.5646C163.898 60.8407 163.532 60.9787 163.088 60.9787ZM164.33 62.1667V72.1389H161.81V62.1667H164.33ZM171.248 72.3009C170.288 72.3009 169.424 72.0909 168.656 71.6709C167.888 71.2389 167.282 70.6329 166.838 69.8529C166.406 69.0728 166.19 68.1728 166.19 67.1528C166.19 66.1328 166.412 65.2328 166.856 64.4527C167.312 63.6727 167.93 63.0727 168.71 62.6527C169.49 62.2207 170.36 62.0047 171.32 62.0047C172.28 62.0047 173.15 62.2207 173.93 62.6527C174.71 63.0727 175.322 63.6727 175.766 64.4527C176.222 65.2328 176.45 66.1328 176.45 67.1528C176.45 68.1728 176.216 69.0728 175.748 69.8529C175.292 70.6329 174.668 71.2389 173.876 71.6709C173.096 72.0909 172.22 72.3009 171.248 72.3009ZM171.248 70.1049C171.704 70.1049 172.13 69.9969 172.526 69.7809C172.934 69.5529 173.258 69.2168 173.498 68.7728C173.738 68.3288 173.858 67.7888 173.858 67.1528C173.858 66.2048 173.606 65.4788 173.102 64.9747C172.61 64.4587 172.004 64.2007 171.284 64.2007C170.564 64.2007 169.958 64.4587 169.466 64.9747C168.986 65.4788 168.746 66.2048 168.746 67.1528C168.746 68.1008 168.98 68.8328 169.448 69.3489C169.928 69.8529 170.528 70.1049 171.248 70.1049ZM183.825 62.0227C185.013 62.0227 185.973 62.4007 186.705 63.1567C187.437 63.9007 187.803 64.9447 187.803 66.2888V72.1389H185.283V66.6308C185.283 65.8388 185.085 65.2328 184.689 64.8127C184.293 64.3807 183.753 64.1647 183.069 64.1647C182.373 64.1647 181.821 64.3807 181.413 64.8127C181.017 65.2328 180.819 65.8388 180.819 66.6308V72.1389H178.299V62.1667H180.819V63.4087C181.155 62.9767 181.581 62.6407 182.097 62.4007C182.625 62.1487 183.201 62.0227 183.825 62.0227Z"/><defs><filter id="filter0_d_45_55" width="256.915" height="139.094" x=".273" y=".273" color-interpolation-filters="sRGB" filterUnits="userSpaceOnUse"><feFlood flood-opacity="0" result="BackgroundImageFix"/><feColorMatrix in="SourceAlpha" result="hardAlpha" type="matrix" values="0 0 0 0 0 0 0 0 0 0 0 0 0 0 0 0 0 0 127 0"/><feOffset/><feGaussianBlur stdDeviation="2.864"/><feComposite in2="hardAlpha" operator="out"/><feColorMatrix type="matrix" values="0 0 0 0 0 0 0 0 0 0 0 0 0 0 0 0 0 0 0.1 0"/><feBlend in2="BackgroundImageFix" mode="normal" result="effect1_dropShadow_45_55"/><feBlend in="SourceGraphic" in2="effect1_dropShadow_45_55" mode="normal" result="shape"/></filter></defs></svg>