<svg width="1440" height="542" viewBox="0 0 1440 542" fill="none" xmlns="http://www.w3.org/2000/svg">
<g opacity="0.19">
<rect x="0.56917" y="1.18978" width="89.9289" height="89.9289" stroke="#151007" stroke-width="1.13834"/>
<rect x="90.498" y="1.18978" width="89.9289" height="89.9289" stroke="#151007" stroke-width="1.13834"/>
<rect x="180.427" y="1.18978" width="89.9289" height="89.9289" stroke="#151007" stroke-width="1.13834"/>
<rect x="270.356" y="1.18978" width="89.9289" height="89.9289" stroke="#151007" stroke-width="1.13834"/>
<rect x="360.285" y="1.18978" width="89.9289" height="89.9289" stroke="#151007" stroke-width="1.13834"/>
<rect x="450.213" y="1.18978" width="89.9289" height="89.9289" stroke="#151007" stroke-width="1.13834"/>
<rect x="540.142" y="1.18978" width="89.9289" height="89.9289" stroke="#151007" stroke-width="1.13834"/>
<rect x="630.071" y="1.18978" width="89.9289" height="89.9289" stroke="#151007" stroke-width="1.13834"/>
<rect x="720" y="1.18978" width="89.9289" height="89.9289" stroke="#151007" stroke-width="1.13834"/>
<rect x="809.929" y="1.18978" width="89.9289" height="89.9289" stroke="#151007" stroke-width="1.13834"/>
<rect x="899.858" y="1.18978" width="89.9289" height="89.9289" stroke="#151007" stroke-width="1.13834"/>
<rect x="989.787" y="1.18978" width="89.9289" height="89.9289" stroke="#151007" stroke-width="1.13834"/>
<rect x="1079.72" y="1.18978" width="89.9289" height="89.9289" stroke="#151007" stroke-width="1.13834"/>
<rect x="1169.64" y="1.18978" width="89.9289" height="89.9289" stroke="#151007" stroke-width="1.13834"/>
<rect x="1259.57" y="1.18978" width="89.9289" height="89.9289" stroke="#151007" stroke-width="1.13834"/>
<rect x="1349.5" y="1.18978" width="89.9289" height="89.9289" stroke="#151007" stroke-width="1.13834"/>
<rect x="0.56917" y="91.1898" width="89.9289" height="89.9289" stroke="#151007" stroke-width="1.13834"/>
<rect x="90.498" y="91.1898" width="89.9289" height="89.9289" stroke="#151007" stroke-width="1.13834"/>
<rect x="180.427" y="91.1898" width="89.9289" height="89.9289" stroke="#151007" stroke-width="1.13834"/>
<rect x="270.356" y="91.1898" width="89.9289" height="89.9289" stroke="#151007" stroke-width="1.13834"/>
<rect x="360.285" y="91.1898" width="89.9289" height="89.9289" stroke="#151007" stroke-width="1.13834"/>
<rect x="450.213" y="91.1898" width="89.9289" height="89.9289" stroke="#151007" stroke-width="1.13834"/>
<rect x="540.142" y="91.1898" width="89.9289" height="89.9289" stroke="#151007" stroke-width="1.13834"/>
<rect x="630.071" y="91.1898" width="89.9289" height="89.9289" stroke="#151007" stroke-width="1.13834"/>
<rect x="720" y="91.1898" width="89.9289" height="89.9289" stroke="#151007" stroke-width="1.13834"/>
<rect x="809.929" y="91.1898" width="89.9289" height="89.9289" stroke="#151007" stroke-width="1.13834"/>
<rect x="899.858" y="91.1898" width="89.9289" height="89.9289" stroke="#151007" stroke-width="1.13834"/>
<rect x="989.787" y="91.1898" width="89.9289" height="89.9289" stroke="#151007" stroke-width="1.13834"/>
<rect x="1079.72" y="91.1898" width="89.9289" height="89.9289" stroke="#151007" stroke-width="1.13834"/>
<rect x="1169.64" y="91.1898" width="89.9289" height="89.9289" stroke="#151007" stroke-width="1.13834"/>
<rect x="1259.57" y="91.1898" width="89.9289" height="89.9289" stroke="#151007" stroke-width="1.13834"/>
<rect x="1349.5" y="91.1898" width="89.9289" height="89.9289" stroke="#151007" stroke-width="1.13834"/>
<rect x="0.56917" y="181.19" width="89.9289" height="89.9289" stroke="#151007" stroke-width="1.13834"/>
<rect x="90.498" y="181.19" width="89.9289" height="89.9289" stroke="#151007" stroke-width="1.13834"/>
<rect x="180.427" y="181.19" width="89.9289" height="89.9289" stroke="#151007" stroke-width="1.13834"/>
<rect x="270.356" y="181.19" width="89.9289" height="89.9289" stroke="#151007" stroke-width="1.13834"/>
<rect x="360.285" y="181.19" width="89.9289" height="89.9289" stroke="#151007" stroke-width="1.13834"/>
<rect x="450.213" y="181.19" width="89.9289" height="89.9289" stroke="#151007" stroke-width="1.13834"/>
<rect x="540.142" y="181.19" width="89.9289" height="89.9289" stroke="#151007" stroke-width="1.13834"/>
<rect x="630.071" y="181.19" width="89.9289" height="89.9289" stroke="#151007" stroke-width="1.13834"/>
<rect x="720" y="181.19" width="89.9289" height="89.9289" stroke="#151007" stroke-width="1.13834"/>
<rect x="809.929" y="181.19" width="89.9289" height="89.9289" stroke="#151007" stroke-width="1.13834"/>
<rect x="899.858" y="181.19" width="89.9289" height="89.9289" stroke="#151007" stroke-width="1.13834"/>
<rect x="989.787" y="181.19" width="89.9289" height="89.9289" stroke="#151007" stroke-width="1.13834"/>
<rect x="1079.72" y="181.19" width="89.9289" height="89.9289" stroke="#151007" stroke-width="1.13834"/>
<rect x="1169.64" y="181.19" width="89.9289" height="89.9289" stroke="#151007" stroke-width="1.13834"/>
<rect x="1259.57" y="181.19" width="89.9289" height="89.9289" stroke="#151007" stroke-width="1.13834"/>
<rect x="1349.5" y="181.19" width="89.9289" height="89.9289" stroke="#151007" stroke-width="1.13834"/>
<rect x="0.56917" y="271.19" width="89.9289" height="89.9289" stroke="#151007" stroke-width="1.13834"/>
<rect x="90.498" y="271.19" width="89.9289" height="89.9289" stroke="#151007" stroke-width="1.13834"/>
<rect x="180.427" y="271.19" width="89.9289" height="89.9289" stroke="#151007" stroke-width="1.13834"/>
<rect x="270.356" y="271.19" width="89.9289" height="89.9289" stroke="#151007" stroke-width="1.13834"/>
<rect x="360.285" y="271.19" width="89.9289" height="89.9289" stroke="#151007" stroke-width="1.13834"/>
<rect x="450.213" y="271.19" width="89.9289" height="89.9289" stroke="#151007" stroke-width="1.13834"/>
<rect x="540.142" y="271.19" width="89.9289" height="89.9289" stroke="#151007" stroke-width="1.13834"/>
<rect x="630.071" y="271.19" width="89.9289" height="89.9289" stroke="#151007" stroke-width="1.13834"/>
<rect x="720" y="271.19" width="89.9289" height="89.9289" stroke="#151007" stroke-width="1.13834"/>
<rect x="809.929" y="271.19" width="89.9289" height="89.9289" stroke="#151007" stroke-width="1.13834"/>
<rect x="899.858" y="271.19" width="89.9289" height="89.9289" stroke="#151007" stroke-width="1.13834"/>
<rect x="989.787" y="271.19" width="89.9289" height="89.9289" stroke="#151007" stroke-width="1.13834"/>
<rect x="1079.72" y="271.19" width="89.9289" height="89.9289" stroke="#151007" stroke-width="1.13834"/>
<rect x="1169.64" y="271.19" width="89.9289" height="89.9289" stroke="#151007" stroke-width="1.13834"/>
<rect x="1259.57" y="271.19" width="89.9289" height="89.9289" stroke="#151007" stroke-width="1.13834"/>
<rect x="1349.5" y="271.19" width="89.9289" height="89.9289" stroke="#151007" stroke-width="1.13834"/>
<rect x="0.56917" y="361.19" width="89.9289" height="89.9289" stroke="#151007" stroke-width="1.13834"/>
<rect x="90.498" y="361.19" width="89.9289" height="89.9289" stroke="#151007" stroke-width="1.13834"/>
<rect x="180.427" y="361.19" width="89.9289" height="89.9289" stroke="#151007" stroke-width="1.13834"/>
<rect x="270.356" y="361.19" width="89.9289" height="89.9289" stroke="#151007" stroke-width="1.13834"/>
<rect x="360.285" y="361.19" width="89.9289" height="89.9289" stroke="#151007" stroke-width="1.13834"/>
<rect x="450.213" y="361.19" width="89.9289" height="89.9289" stroke="#151007" stroke-width="1.13834"/>
<rect x="540.142" y="361.19" width="89.9289" height="89.9289" stroke="#151007" stroke-width="1.13834"/>
<rect x="630.071" y="361.19" width="89.9289" height="89.9289" stroke="#151007" stroke-width="1.13834"/>
<rect x="720" y="361.19" width="89.9289" height="89.9289" stroke="#151007" stroke-width="1.13834"/>
<rect x="809.929" y="361.19" width="89.9289" height="89.9289" stroke="#151007" stroke-width="1.13834"/>
<rect x="899.858" y="361.19" width="89.9289" height="89.9289" stroke="#151007" stroke-width="1.13834"/>
<rect x="989.787" y="361.19" width="89.9289" height="89.9289" stroke="#151007" stroke-width="1.13834"/>
<rect x="1079.72" y="361.19" width="89.9289" height="89.9289" stroke="#151007" stroke-width="1.13834"/>
<rect x="1169.64" y="361.19" width="89.9289" height="89.9289" stroke="#151007" stroke-width="1.13834"/>
<rect x="1259.57" y="361.19" width="89.9289" height="89.9289" stroke="#151007" stroke-width="1.13834"/>
<rect x="1349.5" y="361.19" width="89.9289" height="89.9289" stroke="#151007" stroke-width="1.13834"/>
<rect x="0.56917" y="451.19" width="89.9289" height="89.9289" stroke="#151007" stroke-width="1.13834"/>
<rect x="90.498" y="451.19" width="89.9289" height="89.9289" stroke="#151007" stroke-width="1.13834"/>
<rect x="180.427" y="451.19" width="89.9289" height="89.9289" stroke="#151007" stroke-width="1.13834"/>
<rect x="270.356" y="451.19" width="89.9289" height="89.9289" stroke="#151007" stroke-width="1.13834"/>
<rect x="360.285" y="451.19" width="89.9289" height="89.9289" stroke="#151007" stroke-width="1.13834"/>
<rect x="450.213" y="451.19" width="89.9289" height="89.9289" stroke="#151007" stroke-width="1.13834"/>
<rect x="540.142" y="451.19" width="89.9289" height="89.9289" stroke="#151007" stroke-width="1.13834"/>
<rect x="630.071" y="451.19" width="89.9289" height="89.9289" stroke="#151007" stroke-width="1.13834"/>
<rect x="720" y="451.19" width="89.9289" height="89.9289" stroke="#151007" stroke-width="1.13834"/>
<rect x="809.929" y="451.19" width="89.9289" height="89.9289" stroke="#151007" stroke-width="1.13834"/>
<rect x="899.858" y="451.19" width="89.9289" height="89.9289" stroke="#151007" stroke-width="1.13834"/>
<rect x="989.787" y="451.19" width="89.9289" height="89.9289" stroke="#151007" stroke-width="1.13834"/>
<rect x="1079.72" y="451.19" width="89.9289" height="89.9289" stroke="#151007" stroke-width="1.13834"/>
<rect x="1169.64" y="451.19" width="89.9289" height="89.9289" stroke="#151007" stroke-width="1.13834"/>
<rect x="1259.57" y="451.19" width="89.9289" height="89.9289" stroke="#151007" stroke-width="1.13834"/>
<rect x="1349.5" y="451.19" width="89.9289" height="89.9289" stroke="#151007" stroke-width="1.13834"/>
</g>
</svg>
