<svg xmlns="http://www.w3.org/2000/svg" width="200" height="50" fill="none" viewBox="0 0 200 50"><path fill="#101010" d="M14.058 25.153C14.894 25.285 15.653 25.626 16.335 26.176C17.039 26.726 17.589 27.408 17.985 28.222C18.403 29.036 18.612 29.905 18.612 30.829C18.612 31.995 18.315 33.051 17.721 33.997C17.127 34.921 16.258 35.658 15.114 36.208C13.992 36.736 12.661 37 11.121 37H2.541V13.999H10.791C12.353 13.999 13.684 14.263 14.784 14.791C15.884 15.297 16.709 15.99 17.259 16.87C17.809 17.75 18.084 18.74 18.084 19.84C18.084 21.204 17.71 22.337 16.962 23.239C16.236 24.119 15.268 24.757 14.058 25.153ZM5.544 23.932H10.593C12.001 23.932 13.09 23.602 13.86 22.942C14.63 22.282 15.015 21.369 15.015 20.203C15.015 19.037 14.63 18.124 13.86 17.464C13.09 16.804 11.979 16.474 10.527 16.474H5.544V23.932ZM10.857 34.525C12.353 34.525 13.519 34.173 14.355 33.469C15.191 32.765 15.609 31.786 15.609 30.532C15.609 29.256 15.169 28.255 14.289 27.529C13.409 26.781 12.232 26.407 10.758 26.407H5.544V34.525H10.857ZM40.2033 20.665C39.5653 19.323 38.6413 18.289 37.4313 17.563C36.2213 16.815 34.8133 16.441 33.2073 16.441C31.6013 16.441 30.1493 16.815 28.8513 17.563C27.5753 18.289 26.5633 19.345 25.8153 20.731C25.0893 22.095 24.7263 23.679 24.7263 25.483C24.7263 27.287 25.0893 28.871 25.8153 30.235C26.5633 31.599 27.5753 32.655 28.8513 33.403C30.1493 34.129 31.6013 34.492 33.2073 34.492C35.4513 34.492 37.2993 33.821 38.7513 32.479C40.2033 31.137 41.0503 29.322 41.2923 27.034H32.1183V24.592H44.4933V26.902C44.3173 28.794 43.7233 30.532 42.7113 32.116C41.6993 33.678 40.3683 34.921 38.7183 35.845C37.0683 36.747 35.2313 37.198 33.2073 37.198C31.0733 37.198 29.1263 36.703 27.3663 35.713C25.6063 34.701 24.2093 33.304 23.1753 31.522C22.1633 29.74 21.6573 27.727 21.6573 25.483C21.6573 23.239 22.1633 21.226 23.1753 19.444C24.2093 17.64 25.6063 16.243 27.3663 15.253C29.1263 14.241 31.0733 13.735 33.2073 13.735C35.6493 13.735 37.8053 14.34 39.6753 15.55C41.5673 16.76 42.9423 18.465 43.8003 20.665H40.2033ZM59.9809 25.153C60.8169 25.285 61.5759 25.626 62.2579 26.176C62.9619 26.726 63.5119 27.408 63.9079 28.222C64.3259 29.036 64.5349 29.905 64.5349 30.829C64.5349 31.995 64.2379 33.051 63.6439 33.997C63.0499 34.921 62.1809 35.658 61.0369 36.208C59.9149 36.736 58.5839 37 57.0439 37H48.4639V13.999H56.7139C58.2759 13.999 59.6069 14.263 60.7069 14.791C61.8069 15.297 62.6319 15.99 63.1819 16.87C63.7319 17.75 64.0069 18.74 64.0069 19.84C64.0069 21.204 63.6329 22.337 62.8849 23.239C62.1589 24.119 61.1909 24.757 59.9809 25.153ZM51.4669 23.932H56.5159C57.9239 23.932 59.0129 23.602 59.7829 22.942C60.5529 22.282 60.9379 21.369 60.9379 20.203C60.9379 19.037 60.5529 18.124 59.7829 17.464C59.0129 16.804 57.9019 16.474 56.4499 16.474H51.4669V23.932ZM56.7799 34.525C58.2759 34.525 59.4419 34.173 60.2779 33.469C61.1139 32.765 61.5319 31.786 61.5319 30.532C61.5319 29.256 61.0919 28.255 60.2119 27.529C59.3319 26.781 58.1549 26.407 56.6809 26.407H51.4669V34.525H56.7799Z"/><line x1="81" x2="200" y1="23.5" y2="23.5" stroke="#101010"/></svg>