<svg xmlns="http://www.w3.org/2000/svg" width="360" height="200" fill="none" viewBox="0 0 360 200"><g filter="url(#filter0_d_101_26)"><rect width="348" height="188" x="6.036" y="6" fill="#FFFCF7" rx="20.946"/></g><path fill="#000" d="M131.419 36.537C132.495 34.885 132.972 32.9141 132.77 30.9529C132.568 28.9918 131.7 27.1591 130.311 25.7606L117.822 13.2721C116.22 11.6695 114.046 10.7691 111.78 10.7691C109.513 10.7691 107.339 11.6695 105.737 13.2722L9.05179 109.957C7.44913 111.56 6.54877 113.734 6.54877 116C6.54877 118.266 7.44913 120.44 9.05179 122.043L21.5403 134.531C22.9388 135.921 24.7715 136.789 26.7326 136.99C28.6937 137.192 30.6647 136.715 32.3166 135.639C36.1488 133.139 40.7242 132.033 45.2751 132.507C49.826 132.981 54.0756 135.005 57.311 138.24C60.5464 141.476 62.5707 145.725 63.0443 150.276C63.5179 154.827 62.412 159.402 59.9121 163.235C58.8362 164.887 58.3592 166.858 58.5609 168.819C58.7625 170.78 59.6304 172.613 61.02 174.011L73.5085 186.499C75.1111 188.102 77.2848 189.003 79.5513 189.003C81.8178 189.003 83.9914 188.102 85.5941 186.499L182.279 89.8145C183.882 88.2118 184.782 86.0381 184.782 83.7716C184.782 81.5052 183.882 79.3315 182.279 77.7288L169.791 65.2403C168.392 63.8508 166.559 62.9828 164.598 62.7812C162.637 62.5796 160.666 63.0566 159.014 64.1325C155.182 66.6324 150.607 67.7382 146.056 67.2646C141.505 66.791 137.255 64.7667 134.02 61.5314C130.785 58.296 128.76 54.0464 128.287 49.4955C127.813 44.9446 128.919 40.3692 131.419 36.537ZM77.537 182.471L65.0485 169.982C64.5881 169.518 64.3018 168.908 64.2376 168.257C64.1734 167.606 64.3353 166.953 64.696 166.407C67.9827 161.476 69.4594 155.558 68.8751 149.661C68.2908 143.764 65.6814 138.251 61.491 134.06C57.3005 129.87 51.7877 127.261 45.8904 126.676C39.9931 126.092 34.0755 127.569 29.1441 130.855C28.5983 131.216 27.945 131.378 27.2939 131.314C26.6428 131.25 26.0337 130.963 25.5688 130.503L13.0803 118.014C12.5461 117.48 12.246 116.755 12.246 116C12.246 115.245 12.5461 114.52 13.0803 113.986L43.2944 83.7717L111.78 152.257L81.5656 182.471C81.0313 183.005 80.3068 183.305 79.5513 183.305C78.7958 183.305 78.0712 183.005 77.537 182.471ZM129.908 65.6432C134.093 69.8153 139.587 72.4185 145.466 73.0147C151.345 73.6108 157.25 72.1635 162.187 68.9164C162.733 68.5556 163.386 68.3937 164.037 68.4579C164.688 68.5221 165.297 68.8085 165.762 69.2689L178.251 81.7574C178.785 82.2916 179.085 83.0162 179.085 83.7716C179.085 84.5272 178.785 85.2517 178.251 85.7859L115.808 148.228L47.3229 79.7431L109.765 17.3007C110.3 16.7665 111.024 16.4664 111.78 16.4664C112.535 16.4664 113.26 16.7665 113.794 17.3007L126.282 29.7892C126.743 30.254 127.029 30.8632 127.093 31.5143C127.158 32.1654 126.996 32.8187 126.635 33.3645C123.388 38.3015 121.94 44.2064 122.537 50.0854C123.133 55.9644 125.736 61.4585 129.908 65.6432Z" opacity=".1"/><circle cx="37.036" cy="35.324" r="12.568" fill="#101010"/><path fill="#FFFCF7" d="M35.0136 31.3563V30.2834H37.4438V39.6294H36.2545V31.3563H35.0136Z"/><path fill="#101010" d="M76.0607 30.5163V31.3223H73.9912V38.1079H73.0001V31.3223H70.9197V30.5163H76.0607ZM77.7927 31.1698C77.6039 31.1698 77.4441 31.1044 77.3134 30.9737C77.1827 30.843 77.1174 30.6833 77.1174 30.4945C77.1174 30.3057 77.1827 30.1459 77.3134 30.0152C77.4441 29.8845 77.6039 29.8192 77.7927 29.8192C77.9742 29.8192 78.1267 29.8845 78.2501 30.0152C78.3808 30.1459 78.4462 30.3057 78.4462 30.4945C78.4462 30.6833 78.3808 30.843 78.2501 30.9737C78.1267 31.1044 77.9742 31.1698 77.7927 31.1698ZM78.2719 32.1392V38.1079H77.2807V32.1392H78.2719ZM79.5908 35.1126C79.5908 34.4954 79.7143 33.9581 79.9612 33.5006C80.208 33.0359 80.5493 32.6765 80.985 32.4223C81.4279 32.1682 81.9326 32.0411 82.499 32.0411C83.2324 32.0411 83.835 32.219 84.307 32.5748C84.7863 32.9306 85.1021 33.4244 85.2546 34.0561H84.1872C84.0856 33.6931 83.8859 33.4062 83.5882 33.1957C83.2977 32.9851 82.9346 32.8798 82.499 32.8798C81.9326 32.8798 81.4751 33.0759 81.1266 33.468C80.7781 33.8528 80.6038 34.401 80.6038 35.1126C80.6038 35.8315 80.7781 36.387 81.1266 36.7791C81.4751 37.1712 81.9326 37.3673 82.499 37.3673C82.9346 37.3673 83.2977 37.2656 83.5882 37.0623C83.8786 36.859 84.0783 36.5685 84.1872 36.1909H85.2546C85.0949 36.8009 84.7754 37.291 84.2961 37.6613C83.8169 38.0244 83.2178 38.2059 82.499 38.2059C81.9326 38.2059 81.4279 38.0789 80.985 37.8247C80.5493 37.5706 80.208 37.2111 79.9612 36.7464C79.7143 36.2817 79.5908 35.7371 79.5908 35.1126ZM89.9101 38.1079L87.5683 35.4721V38.1079H86.5771V30.0479H87.5683V34.7859L89.8665 32.1392H91.2498L88.4396 35.1126L91.2606 38.1079H89.9101ZM97.6286 34.8948C97.6286 35.0836 97.6177 35.2833 97.5959 35.4939H92.8253C92.8616 36.082 93.0612 36.5431 93.4243 36.8771C93.7946 37.2039 94.2412 37.3673 94.764 37.3673C95.1924 37.3673 95.5482 37.2692 95.8314 37.0732C96.1219 36.8699 96.3252 36.6012 96.4414 36.2672H97.5088C97.349 36.8408 97.0295 37.3092 96.5503 37.6722C96.071 38.028 95.4756 38.2059 94.764 38.2059C94.1976 38.2059 93.6893 38.0789 93.2391 37.8247C92.7962 37.5706 92.4477 37.2111 92.1935 36.7464C91.9394 36.2744 91.8123 35.7298 91.8123 35.1126C91.8123 34.4954 91.9357 33.9545 92.1826 33.4897C92.4295 33.025 92.7744 32.6692 93.2174 32.4223C93.6676 32.1682 94.1831 32.0411 94.764 32.0411C95.3304 32.0411 95.8314 32.1646 96.2671 32.4115C96.7028 32.6583 97.0368 32.9996 97.2691 33.4353C97.5088 33.8637 97.6286 34.3502 97.6286 34.8948ZM96.6047 34.6879C96.6047 34.3103 96.5212 33.9871 96.3542 33.7185C96.1872 33.4425 95.9585 33.2356 95.668 33.0976C95.3848 32.9524 95.069 32.8798 94.7204 32.8798C94.2194 32.8798 93.791 33.0395 93.4352 33.359C93.0867 33.6785 92.887 34.1215 92.8361 34.6879H96.6047ZM100.146 32.956V36.4741C100.146 36.7646 100.208 36.9715 100.331 37.095C100.454 37.2111 100.669 37.2692 100.974 37.2692H101.703V38.1079H100.81C100.258 38.1079 99.8445 37.9808 99.5686 37.7267C99.2927 37.4725 99.1547 37.055 99.1547 36.4741V32.956H98.3814V32.1392H99.1547V30.6361H100.146V32.1392H101.703V32.956H100.146ZM109.947 33.6967V34.5354H105.601V33.6967H109.947ZM114.428 37.3128C115.35 36.5722 116.072 35.9658 116.595 35.4939C117.118 35.0146 117.557 34.5172 117.913 34.0017C118.276 33.4789 118.458 32.9669 118.458 32.4659C118.458 31.9939 118.342 31.6236 118.109 31.3549C117.884 31.079 117.517 30.941 117.009 30.941C116.515 30.941 116.131 31.0972 115.855 31.4094C115.586 31.7144 115.441 32.1246 115.419 32.6402H114.46C114.49 31.8269 114.736 31.1988 115.201 30.7559C115.666 30.3129 116.265 30.0915 116.998 30.0915C117.746 30.0915 118.338 30.2984 118.774 30.7123C119.217 31.1262 119.438 31.6962 119.438 32.4223C119.438 33.025 119.257 33.6132 118.893 34.1868C118.538 34.7532 118.131 35.2542 117.674 35.6899C117.216 36.1183 116.632 36.6194 115.92 37.193H119.667V38.0208H114.428V37.3128Z"/><path fill="#101010" d="M78.0919 122L75.4538 117.471H73.7057V122H72.2596V110.923H75.8352C76.6722 110.923 77.3768 111.066 77.9489 111.352C78.5316 111.638 78.9659 112.025 79.252 112.513C79.5381 113 79.6811 113.556 79.6811 114.181C79.6811 114.944 79.4586 115.617 79.0136 116.199C78.5792 116.782 77.9224 117.169 77.043 117.36L79.8241 122H78.0919ZM73.7057 116.311H75.8352C76.6192 116.311 77.2072 116.12 77.5992 115.739C77.9912 115.347 78.1872 114.827 78.1872 114.181C78.1872 113.524 77.9912 113.016 77.5992 112.656C77.2178 112.295 76.6298 112.115 75.8352 112.115H73.7057V116.311ZM85.0112 122.143C84.3437 122.143 83.7451 122.032 83.2154 121.809C82.6857 121.576 82.2672 121.258 81.96 120.856C81.6527 120.443 81.4832 119.971 81.4514 119.441H82.9452C82.9876 119.876 83.1889 120.231 83.5491 120.506C83.92 120.782 84.402 120.919 84.9953 120.919C85.5462 120.919 85.9806 120.798 86.2984 120.554C86.6163 120.31 86.7752 120.003 86.7752 119.632C86.7752 119.251 86.6057 118.97 86.2667 118.79C85.9276 118.599 85.4032 118.414 84.6934 118.234C84.0471 118.064 83.5174 117.895 83.1042 117.725C82.7016 117.545 82.352 117.285 82.0553 116.946C81.7692 116.597 81.6262 116.141 81.6262 115.58C81.6262 115.135 81.7587 114.727 82.0235 114.356C82.2884 113.985 82.6645 113.694 83.1518 113.482C83.6392 113.259 84.1954 113.148 84.8205 113.148C85.7846 113.148 86.5633 113.392 87.1566 113.879C87.7499 114.367 88.0677 115.034 88.1101 115.882H86.664C86.6322 115.426 86.4468 115.061 86.1077 114.785C85.7793 114.51 85.3343 114.372 84.7728 114.372C84.2537 114.372 83.8405 114.483 83.5332 114.706C83.226 114.928 83.0724 115.219 83.0724 115.58C83.0724 115.866 83.1624 116.104 83.3425 116.295C83.5332 116.475 83.7663 116.623 84.0418 116.74C84.3278 116.846 84.7198 116.968 85.2178 117.105C85.8429 117.275 86.3514 117.444 86.7434 117.614C87.1354 117.773 87.4691 118.016 87.7446 118.345C88.0307 118.673 88.179 119.102 88.1896 119.632C88.1896 120.109 88.0571 120.538 87.7923 120.919C87.5274 121.301 87.1513 121.603 86.664 121.825C86.1872 122.037 85.6363 122.143 85.0112 122.143ZM90.6919 122.095C90.4165 122.095 90.1834 122 89.9927 121.809C89.802 121.619 89.7066 121.386 89.7066 121.11C89.7066 120.835 89.802 120.602 89.9927 120.411C90.1834 120.22 90.4165 120.125 90.6919 120.125C90.9568 120.125 91.1793 120.22 91.3594 120.411C91.5501 120.602 91.6454 120.835 91.6454 121.11C91.6454 121.386 91.5501 121.619 91.3594 121.809C91.1793 122 90.9568 122.095 90.6919 122.095ZM97.1848 111.829V110.51H100.172V122H98.7104V111.829H97.1848ZM109.983 111.766H104.405V115.389C104.648 115.05 105.009 114.774 105.485 114.563C105.962 114.34 106.476 114.229 107.027 114.229C107.906 114.229 108.621 114.414 109.172 114.785C109.723 115.145 110.115 115.617 110.348 116.199C110.592 116.772 110.714 117.381 110.714 118.027C110.714 118.79 110.571 119.473 110.285 120.077C109.999 120.681 109.559 121.158 108.966 121.507C108.383 121.857 107.657 122.032 106.788 122.032C105.676 122.032 104.775 121.746 104.087 121.174C103.398 120.602 102.98 119.839 102.831 118.885H104.246C104.383 119.489 104.675 119.961 105.12 120.3C105.565 120.639 106.126 120.808 106.804 120.808C107.641 120.808 108.272 120.559 108.695 120.061C109.119 119.553 109.331 118.885 109.331 118.059C109.331 117.232 109.119 116.597 108.695 116.152C108.272 115.696 107.647 115.468 106.82 115.468C106.259 115.468 105.766 115.606 105.342 115.882C104.929 116.146 104.627 116.512 104.436 116.978H103.07V110.494H109.983V111.766ZM112.636 116.136C112.636 114.314 112.932 112.894 113.525 111.877C114.119 110.849 115.157 110.335 116.64 110.335C118.113 110.335 119.146 110.849 119.739 111.877C120.332 112.894 120.629 114.314 120.629 116.136C120.629 117.99 120.332 119.431 119.739 120.458C119.146 121.486 118.113 122 116.64 122C115.157 122 114.119 121.486 113.525 120.458C112.932 119.431 112.636 117.99 112.636 116.136ZM119.199 116.136C119.199 115.214 119.135 114.435 119.008 113.8C118.892 113.154 118.643 112.634 118.261 112.242C117.89 111.85 117.35 111.654 116.64 111.654C115.92 111.654 115.369 111.85 114.988 112.242C114.617 112.634 114.368 113.154 114.241 113.8C114.124 114.435 114.066 115.214 114.066 116.136C114.066 117.089 114.124 117.889 114.241 118.536C114.368 119.182 114.617 119.701 114.988 120.093C115.369 120.485 115.92 120.681 116.64 120.681C117.35 120.681 117.89 120.485 118.261 120.093C118.643 119.701 118.892 119.182 119.008 118.536C119.135 117.889 119.199 117.089 119.199 116.136ZM128.256 107.03L123.902 124.702H122.471L126.81 107.03H128.256ZM136.45 115.564V116.787H130.109V115.564H136.45Z"/><path fill="#000" d="M86.6419 94H83.3613L75.9333 82.7759V94H72.6527V77.6207H75.9333L83.3613 88.8683V77.6207H86.6419V94ZM97.4759 94.164C95.945 94.164 94.539 93.8047 93.2581 93.0861C91.9771 92.3675 90.9617 91.3756 90.2119 90.1102C89.462 88.8292 89.0871 87.3842 89.0871 85.7752C89.0871 84.1818 89.462 82.7524 90.2119 81.4871C90.9617 80.2061 91.9771 79.2063 93.2581 78.4877C94.539 77.7691 95.945 77.4098 97.4759 77.4098C99.0225 77.4098 100.428 77.7691 101.694 78.4877C102.975 79.2063 103.982 80.2061 104.717 81.4871C105.466 82.7524 105.841 84.1818 105.841 85.7752C105.841 87.3842 105.466 88.8292 104.717 90.1102C103.982 91.3756 102.975 92.3675 101.694 93.0861C100.413 93.8047 99.0068 94.164 97.4759 94.164ZM97.4759 91.235C98.4601 91.235 99.3271 91.0163 100.077 90.5789C100.827 90.1258 101.413 89.4854 101.834 88.6574C102.256 87.8295 102.467 86.8687 102.467 85.7752C102.467 84.6817 102.256 83.7288 101.834 82.9165C101.413 82.0885 100.827 81.4558 100.077 81.0184C99.3271 80.581 98.4601 80.3623 97.4759 80.3623C96.4917 80.3623 95.6169 80.581 94.8515 81.0184C94.1016 81.4558 93.5158 82.0885 93.094 82.9165C92.6723 83.7288 92.4614 84.6817 92.4614 85.7752C92.4614 86.8687 92.6723 87.8295 93.094 88.6574C93.5158 89.4854 94.1016 90.1258 94.8515 90.5789C95.6169 91.0163 96.4917 91.235 97.4759 91.235ZM122.271 94H118.991L111.562 82.7759V94H108.282V77.6207H111.562L118.991 88.8683V77.6207H122.271V94ZM134.377 77.6442V94H131.097V77.6442H134.377ZM140.899 80.292V84.3927H146.405V86.9937H140.899V91.3287H147.108V94H137.618V77.6207H147.108V80.292H140.899ZM153.37 80.292V84.3927H158.877V86.9937H153.37V91.3287H159.58V94H150.09V77.6207H159.58V80.292H153.37ZM165.841 80.292V84.3927H171.348V86.9937H165.841V91.3287H172.051V94H162.561V77.6207H172.051V80.292H165.841ZM198.448 77.6442V94H195.167V83.3617L190.786 94H188.302L183.896 83.3617V94H180.616V77.6442H184.342L189.544 89.8056L194.746 77.6442H198.448ZM204.972 80.292V84.3927H210.478V86.9937H204.972V91.3287H211.181V94H201.691V77.6207H211.181V80.292H204.972ZM231.995 77.6442V94H228.714V83.3617L224.332 94H221.848L217.443 83.3617V94H214.163V77.6442H217.888L223.09 89.8056L228.292 77.6442H231.995ZM244.517 85.6112C245.439 85.783 246.197 86.2439 246.79 86.9937C247.384 87.7435 247.681 88.6027 247.681 89.5713C247.681 90.4461 247.462 91.2194 247.025 91.8911C246.603 92.5472 245.986 93.0627 245.173 93.4376C244.361 93.8125 243.4 94 242.291 94H235.238V77.6442H241.987C243.096 77.6442 244.049 77.8238 244.845 78.1831C245.658 78.5424 246.267 79.0423 246.673 79.6828C247.095 80.3233 247.306 81.0497 247.306 81.862C247.306 82.8149 247.048 83.6116 246.533 84.2521C246.033 84.8926 245.361 85.3456 244.517 85.6112ZM238.519 84.3927H241.518C242.299 84.3927 242.901 84.2209 243.322 83.8772C243.744 83.5179 243.955 83.0102 243.955 82.3541C243.955 81.698 243.744 81.1903 243.322 80.831C242.901 80.4717 242.299 80.292 241.518 80.292H238.519V84.3927ZM241.823 91.3287C242.619 91.3287 243.236 91.1412 243.674 90.7663C244.127 90.3914 244.353 89.8603 244.353 89.1729C244.353 88.4699 244.119 87.9232 243.65 87.5326C243.182 87.1265 242.549 86.9234 241.752 86.9234H238.519V91.3287H241.823ZM253.576 80.292V84.3927H259.082V86.9937H253.576V91.3287H259.785V94H250.295V77.6207H259.785V80.292H253.576ZM271.202 94L267.594 87.6264H266.047V94H262.767V77.6442H268.906C270.171 77.6442 271.249 77.8707 272.14 78.3237C273.03 78.7611 273.694 79.3625 274.131 80.128C274.584 80.8778 274.811 81.7214 274.811 82.6587C274.811 83.7366 274.498 84.7129 273.874 85.5878C273.249 86.4469 272.319 87.0406 271.085 87.3686L274.998 94H271.202ZM266.047 85.166H268.789C269.679 85.166 270.343 84.9551 270.781 84.5333C271.218 84.0959 271.437 83.4945 271.437 82.729C271.437 81.9792 271.218 81.4012 270.781 80.995C270.343 80.5732 269.679 80.3623 268.789 80.3623H266.047V85.166ZM283.425 94.164C282.285 94.164 281.254 93.9688 280.332 93.5782C279.426 93.1877 278.708 92.6253 278.176 91.8911C277.645 91.1569 277.372 90.2899 277.356 89.2901H280.871C280.918 89.9618 281.152 90.4929 281.574 90.8835C282.012 91.274 282.605 91.4693 283.355 91.4693C284.12 91.4693 284.722 91.2896 285.159 90.9304C285.597 90.5554 285.815 90.0712 285.815 89.4775C285.815 88.9933 285.667 88.5949 285.37 88.2825C285.073 87.9701 284.698 87.7279 284.245 87.5561C283.808 87.3686 283.199 87.1655 282.418 86.9468C281.355 86.6344 280.488 86.3298 279.817 86.033C279.161 85.7205 278.59 85.2597 278.106 84.6505C277.637 84.0256 277.403 83.1976 277.403 82.1666C277.403 81.1981 277.645 80.3545 278.13 79.6359C278.614 78.9173 279.293 78.3706 280.168 77.9956C281.043 77.6051 282.043 77.4098 283.168 77.4098C284.855 77.4098 286.222 77.8238 287.268 78.6518C288.33 79.4641 288.916 80.6045 289.026 82.0729H285.417C285.386 81.5105 285.144 81.0497 284.691 80.6904C284.253 80.3155 283.667 80.128 282.933 80.128C282.293 80.128 281.777 80.292 281.387 80.6201C281.012 80.9481 280.824 81.4246 280.824 82.0495C280.824 82.4869 280.965 82.854 281.246 83.1508C281.543 83.432 281.902 83.6663 282.324 83.8538C282.761 84.0256 283.371 84.2287 284.152 84.463C285.214 84.7754 286.081 85.0879 286.753 85.4003C287.424 85.7127 288.002 86.1814 288.487 86.8062C288.971 87.4311 289.213 88.2512 289.213 89.2666C289.213 90.1415 288.987 90.9538 288.534 91.7036C288.081 92.4535 287.417 93.0549 286.542 93.5079C285.667 93.9453 284.628 94.164 283.425 94.164Z"/><defs><filter id="filter0_d_101_26" width="359.73" height="199.73" x=".171" y=".135" color-interpolation-filters="sRGB" filterUnits="userSpaceOnUse"><feFlood flood-opacity="0" result="BackgroundImageFix"/><feColorMatrix in="SourceAlpha" result="hardAlpha" type="matrix" values="0 0 0 0 0 0 0 0 0 0 0 0 0 0 0 0 0 0 127 0"/><feOffset/><feGaussianBlur stdDeviation="2.932"/><feComposite in2="hardAlpha" operator="out"/><feColorMatrix type="matrix" values="0 0 0 0 0 0 0 0 0 0 0 0 0 0 0 0 0 0 0.1 0"/><feBlend in2="BackgroundImageFix" mode="normal" result="effect1_dropShadow_101_26"/><feBlend in="SourceGraphic" in2="effect1_dropShadow_101_26" mode="normal" result="shape"/></filter></defs></svg>