<svg width="360" height="200" viewBox="0 0 360 200" fill="none" xmlns="http://www.w3.org/2000/svg">
<g filter="url(#filter0_d_11_15)">
<rect x="6.00899" y="6" width="348" height="188" rx="20.9459" fill="#FFFCF7"/>
</g>
<path opacity="0.1" d="M134.41 37.7831C135.486 36.1311 135.963 34.1602 135.761 32.199C135.559 30.2379 134.691 28.4052 133.302 27.0067L120.813 14.5182C119.211 12.9156 117.037 12.0152 114.771 12.0152C112.504 12.0152 110.33 12.9156 108.728 14.5182L12.0428 111.203C10.4402 112.806 9.5398 114.98 9.5398 117.246C9.5398 119.513 10.4402 121.686 12.0428 123.289L24.5313 135.777C25.9298 137.167 27.7625 138.035 29.7236 138.237C31.6847 138.438 33.6557 137.961 35.3076 136.885C39.1399 134.385 43.7152 133.28 48.2661 133.753C52.8171 134.227 57.0667 136.251 60.302 139.486C63.5374 142.722 65.5617 146.971 66.0353 151.522C66.5089 156.073 65.403 160.649 62.9032 164.481C61.8272 166.133 61.3503 168.104 61.5519 170.065C61.7535 172.026 62.6215 173.859 64.011 175.257L76.4995 187.746C78.1022 189.348 80.2758 190.249 82.5423 190.249C84.8088 190.249 86.9825 189.348 88.5851 187.746L185.27 91.0606C186.873 89.4579 187.773 87.2842 187.773 85.0177C187.773 82.7513 186.873 80.5776 185.27 78.9749L172.782 66.4864C171.383 65.0969 169.55 64.2289 167.589 64.0273C165.628 63.8257 163.657 64.3027 162.005 65.3786C158.173 67.8784 153.598 68.9843 149.047 68.5107C144.496 68.0371 140.246 66.0128 137.011 62.7775C133.776 59.5421 131.751 55.2925 131.278 50.7416C130.804 46.1907 131.91 41.6153 134.41 37.7831ZM80.528 183.717L68.0396 171.229C67.5792 170.764 67.2928 170.155 67.2286 169.503C67.1644 168.852 67.3263 168.199 67.6871 167.653C70.9737 162.722 72.4505 156.804 71.8661 150.907C71.2818 145.01 68.6725 139.497 64.482 135.306C60.2915 131.116 54.7788 128.507 48.8815 127.922C42.9841 127.338 37.0665 128.815 32.1352 132.101C31.5894 132.462 30.936 132.624 30.2849 132.56C29.6338 132.496 29.0247 132.209 28.5598 131.749L16.0714 119.26C15.5371 118.726 15.237 118.002 15.237 117.246C15.237 116.491 15.5371 115.766 16.0714 115.232L46.2854 85.0177L114.771 153.503L84.5566 183.717C84.0224 184.251 83.2978 184.551 82.5423 184.551C81.7868 184.551 81.0623 184.251 80.528 183.717ZM132.899 66.8893C137.084 71.0614 142.578 73.6646 148.457 74.2608C154.336 74.8569 160.241 73.4096 165.178 70.1625C165.724 69.8017 166.377 69.6398 167.028 69.704C167.679 69.7682 168.288 70.0546 168.753 70.515L181.242 83.0035C181.776 83.5377 182.076 84.2622 182.076 85.0177C182.076 85.7732 181.776 86.4978 181.242 87.032L118.799 149.474L50.314 80.9892L112.756 18.5468C113.291 18.0126 114.015 17.7125 114.771 17.7124C115.526 17.7125 116.251 18.0126 116.785 18.5468L129.273 31.0353C129.734 31.5001 130.02 32.1093 130.084 32.7604C130.149 33.4114 129.987 34.0648 129.626 34.6106C126.379 39.5476 124.931 45.4525 125.528 51.3315C126.124 57.2105 128.727 62.7046 132.899 66.8893Z" fill="black"/>
<circle cx="37.009" cy="35.3244" r="12.5676" fill="#101010"/>
<path d="M34.9867 31.3563V30.2834H37.4169V39.6294H36.2276V31.3563H34.9867Z" fill="#FFFCF7"/>
<path d="M76.0338 30.5163V31.3223H73.9643V38.1079H72.9732V31.3223H70.8928V30.5163H76.0338ZM77.7658 31.1698C77.577 31.1698 77.4172 31.1044 77.2865 30.9737C77.1558 30.843 77.0905 30.6833 77.0905 30.4945C77.0905 30.3057 77.1558 30.1459 77.2865 30.0152C77.4172 29.8845 77.577 29.8192 77.7658 29.8192C77.9473 29.8192 78.0998 29.8845 78.2232 30.0152C78.3539 30.1459 78.4193 30.3057 78.4193 30.4945C78.4193 30.6833 78.3539 30.843 78.2232 30.9737C78.0998 31.1044 77.9473 31.1698 77.7658 31.1698ZM78.245 32.1392V38.1079H77.2539V32.1392H78.245ZM79.564 35.1126C79.564 34.4954 79.6874 33.9581 79.9343 33.5006C80.1812 33.0359 80.5225 32.6765 80.9581 32.4223C81.4011 32.1682 81.9057 32.0411 82.4721 32.0411C83.2055 32.0411 83.8082 32.219 84.2802 32.5748C84.7594 32.9306 85.0753 33.4244 85.2278 34.0561H84.1603C84.0587 33.6931 83.859 33.4062 83.5613 33.1957C83.2708 32.9851 82.9078 32.8798 82.4721 32.8798C81.9057 32.8798 81.4483 33.0759 81.0997 33.468C80.7512 33.8528 80.5769 34.401 80.5769 35.1126C80.5769 35.8315 80.7512 36.387 81.0997 36.7791C81.4483 37.1712 81.9057 37.3673 82.4721 37.3673C82.9078 37.3673 83.2708 37.2656 83.5613 37.0623C83.8517 36.859 84.0514 36.5685 84.1603 36.1909H85.2278C85.068 36.8009 84.7485 37.291 84.2693 37.6613C83.79 38.0244 83.191 38.2059 82.4721 38.2059C81.9057 38.2059 81.4011 38.0789 80.9581 37.8247C80.5225 37.5706 80.1812 37.2111 79.9343 36.7464C79.6874 36.2817 79.564 35.7371 79.564 35.1126ZM89.8832 38.1079L87.5414 35.4721V38.1079H86.5503V30.0479H87.5414V34.7859L89.8396 32.1392H91.2229L88.4128 35.1126L91.2338 38.1079H89.8832ZM97.6017 34.8948C97.6017 35.0836 97.5908 35.2833 97.569 35.4939H92.7984C92.8347 36.082 93.0344 36.5431 93.3974 36.8771C93.7678 37.2039 94.2143 37.3673 94.7371 37.3673C95.1656 37.3673 95.5214 37.2692 95.8045 37.0732C96.095 36.8699 96.2983 36.6012 96.4145 36.2672H97.4819C97.3221 36.8408 97.0027 37.3092 96.5234 37.6722C96.0442 38.028 95.4487 38.2059 94.7371 38.2059C94.1708 38.2059 93.6625 38.0789 93.2123 37.8247C92.7693 37.5706 92.4208 37.2111 92.1667 36.7464C91.9125 36.2744 91.7854 35.7298 91.7854 35.1126C91.7854 34.4954 91.9089 33.9545 92.1558 33.4897C92.4026 33.025 92.7476 32.6692 93.1905 32.4223C93.6407 32.1682 94.1562 32.0411 94.7371 32.0411C95.3035 32.0411 95.8045 32.1646 96.2402 32.4115C96.6759 32.6583 97.0099 32.9996 97.2423 33.4353C97.4819 33.8637 97.6017 34.3502 97.6017 34.8948ZM96.5779 34.6879C96.5779 34.3103 96.4944 33.9871 96.3274 33.7185C96.1603 33.4425 95.9316 33.2356 95.6412 33.0976C95.358 32.9524 95.0421 32.8798 94.6936 32.8798C94.1925 32.8798 93.7641 33.0395 93.4083 33.359C93.0598 33.6785 92.8601 34.1215 92.8093 34.6879H96.5779ZM100.119 32.956V36.4741C100.119 36.7646 100.181 36.9715 100.304 37.095C100.428 37.2111 100.642 37.2692 100.947 37.2692H101.677V38.1079H100.783C100.232 38.1079 99.8177 37.9808 99.5417 37.7267C99.2658 37.4725 99.1278 37.055 99.1278 36.4741V32.956H98.3545V32.1392H99.1278V30.6361H100.119V32.1392H101.677V32.956H100.119ZM109.92 33.6967V34.5354H105.574V33.6967H109.92ZM114.259 31.1371V30.2331H116.307V38.1079H115.305V31.1371H114.259Z" fill="#101010"/>
<path d="M78.065 122L75.427 117.471H73.6789V122H72.2327V110.923H75.8084C76.6453 110.923 77.3499 111.066 77.922 111.352C78.5047 111.638 78.9391 112.025 79.2251 112.513C79.5112 113 79.6542 113.556 79.6542 114.181C79.6542 114.944 79.4317 115.617 78.9867 116.199C78.5524 116.782 77.8955 117.169 77.0162 117.36L79.7972 122H78.065ZM73.6789 116.311H75.8084C76.5924 116.311 77.1804 116.12 77.5724 115.739C77.9644 115.347 78.1604 114.827 78.1604 114.181C78.1604 113.524 77.9644 113.016 77.5724 112.656C77.191 112.295 76.603 112.115 75.8084 112.115H73.6789V116.311ZM84.9843 122.143C84.3169 122.143 83.7183 122.032 83.1885 121.809C82.6588 121.576 82.2403 121.258 81.9331 120.856C81.6258 120.443 81.4563 119.971 81.4245 119.441H82.9184C82.9608 119.876 83.1621 120.231 83.5223 120.506C83.8931 120.782 84.3751 120.919 84.9684 120.919C85.5193 120.919 85.9537 120.798 86.2716 120.554C86.5894 120.31 86.7483 120.003 86.7483 119.632C86.7483 119.251 86.5788 118.97 86.2398 118.79C85.9008 118.599 85.3763 118.414 84.6665 118.234C84.0202 118.064 83.4905 117.895 83.0773 117.725C82.6747 117.545 82.3251 117.285 82.0284 116.946C81.7424 116.597 81.5993 116.141 81.5993 115.58C81.5993 115.135 81.7318 114.727 81.9966 114.356C82.2615 113.985 82.6376 113.694 83.125 113.482C83.6123 113.259 84.1685 113.148 84.7936 113.148C85.7577 113.148 86.5364 113.392 87.1297 113.879C87.723 114.367 88.0409 115.034 88.0832 115.882H86.6371C86.6053 115.426 86.4199 115.061 86.0809 114.785C85.7524 114.51 85.3075 114.372 84.7459 114.372C84.2268 114.372 83.8136 114.483 83.5064 114.706C83.1991 114.928 83.0455 115.219 83.0455 115.58C83.0455 115.866 83.1356 116.104 83.3157 116.295C83.5064 116.475 83.7395 116.623 84.0149 116.74C84.301 116.846 84.693 116.968 85.1909 117.105C85.816 117.275 86.3245 117.444 86.7165 117.614C87.1085 117.773 87.4423 118.016 87.7177 118.345C88.0038 118.673 88.1521 119.102 88.1627 119.632C88.1627 120.109 88.0303 120.538 87.7654 120.919C87.5005 121.301 87.1244 121.603 86.6371 121.825C86.1603 122.037 85.6094 122.143 84.9843 122.143ZM90.6651 122.095C90.3896 122.095 90.1565 122 89.9658 121.809C89.7751 121.619 89.6798 121.386 89.6798 121.11C89.6798 120.835 89.7751 120.602 89.9658 120.411C90.1565 120.22 90.3896 120.125 90.6651 120.125C90.9299 120.125 91.1524 120.22 91.3325 120.411C91.5232 120.602 91.6186 120.835 91.6186 121.11C91.6186 121.386 91.5232 121.619 91.3325 121.809C91.1524 122 90.9299 122.095 90.6651 122.095ZM97.1579 111.829V110.51H100.146V122H98.6835V111.829H97.1579ZM102.63 116.136C102.63 114.314 102.926 112.894 103.52 111.877C104.113 110.849 105.151 110.335 106.634 110.335C108.107 110.335 109.14 110.849 109.733 111.877C110.327 112.894 110.623 114.314 110.623 116.136C110.623 117.99 110.327 119.431 109.733 120.458C109.14 121.486 108.107 122 106.634 122C105.151 122 104.113 121.486 103.52 120.458C102.926 119.431 102.63 117.99 102.63 116.136ZM109.193 116.136C109.193 115.214 109.129 114.435 109.002 113.8C108.886 113.154 108.637 112.634 108.255 112.242C107.885 111.85 107.344 111.654 106.634 111.654C105.914 111.654 105.363 111.85 104.982 112.242C104.611 112.634 104.362 113.154 104.235 113.8C104.118 114.435 104.06 115.214 104.06 116.136C104.06 117.089 104.118 117.889 104.235 118.536C104.362 119.182 104.611 119.701 104.982 120.093C105.363 120.485 105.914 120.681 106.634 120.681C107.344 120.681 107.885 120.485 108.255 120.093C108.637 119.701 108.886 119.182 109.002 118.536C109.129 117.889 109.193 117.089 109.193 116.136ZM112.609 116.136C112.609 114.314 112.905 112.894 113.499 111.877C114.092 110.849 115.13 110.335 116.613 110.335C118.086 110.335 119.119 110.849 119.712 111.877C120.306 112.894 120.602 114.314 120.602 116.136C120.602 117.99 120.306 119.431 119.712 120.458C119.119 121.486 118.086 122 116.613 122C115.13 122 114.092 121.486 113.499 120.458C112.905 119.431 112.609 117.99 112.609 116.136ZM119.172 116.136C119.172 115.214 119.108 114.435 118.981 113.8C118.865 113.154 118.616 112.634 118.234 112.242C117.864 111.85 117.323 111.654 116.613 111.654C115.893 111.654 115.342 111.85 114.961 112.242C114.59 112.634 114.341 113.154 114.214 113.8C114.097 114.435 114.039 115.214 114.039 116.136C114.039 117.089 114.097 117.889 114.214 118.536C114.341 119.182 114.59 119.701 114.961 120.093C115.342 120.485 115.893 120.681 116.613 120.681C117.323 120.681 117.864 120.485 118.234 120.093C118.616 119.701 118.865 119.182 118.981 118.536C119.108 117.889 119.172 117.089 119.172 116.136ZM128.229 107.03L123.875 124.702H122.445L126.783 107.03H128.229ZM136.423 115.564V116.787H130.082V115.564H136.423Z" fill="#101010"/>
<path d="M75.9064 77.6442V94H72.6259V77.6442H75.9064ZM82.4281 80.292V84.3927H87.9347V86.9937H82.4281V91.3287H88.6377V94H79.1476V77.6207H88.6377V80.292H82.4281ZM94.8995 80.292V84.3927H100.406V86.9937H94.8995V91.3287H101.109V94H91.6189V77.6207H101.109V80.292H94.8995ZM107.371 80.292V84.3927H112.877V86.9937H107.371V91.3287H113.58V94H104.09V77.6207H113.58V80.292H107.371ZM139.977 77.6442V94H136.697V83.3617L132.315 94H129.831L125.426 83.3617V94H122.145V77.6442H125.871L131.073 89.8056L136.275 77.6442H139.977ZM146.501 80.292V84.3927H152.008V86.9937H146.501V91.3287H152.711V94H143.221V77.6207H152.711V80.292H146.501ZM173.524 77.6442V94H170.244V83.3617L165.862 94H163.378L158.973 83.3617V94H155.692V77.6442H159.418L164.62 89.8056L169.822 77.6442H173.524ZM186.047 85.6112C186.968 85.783 187.726 86.2439 188.32 86.9937C188.913 87.7435 189.21 88.6027 189.21 89.5713C189.21 90.4461 188.991 91.2194 188.554 91.8911C188.132 92.5472 187.515 93.0627 186.703 93.4376C185.89 93.8125 184.93 94 183.821 94H176.767V77.6442H183.516C184.625 77.6442 185.578 77.8238 186.375 78.1831C187.187 78.5424 187.796 79.0423 188.202 79.6828C188.624 80.3233 188.835 81.0497 188.835 81.862C188.835 82.8149 188.577 83.6116 188.062 84.2521C187.562 84.8926 186.89 85.3456 186.047 85.6112ZM180.048 84.3927H183.047C183.828 84.3927 184.43 84.2209 184.852 83.8772C185.273 83.5179 185.484 83.0102 185.484 82.3541C185.484 81.698 185.273 81.1903 184.852 80.831C184.43 80.4717 183.828 80.292 183.047 80.292H180.048V84.3927ZM183.352 91.3287C184.149 91.3287 184.766 91.1412 185.203 90.7663C185.656 90.3914 185.883 89.8603 185.883 89.1729C185.883 88.4699 185.648 87.9232 185.18 87.5326C184.711 87.1265 184.078 86.9234 183.282 86.9234H180.048V91.3287H183.352ZM195.105 80.292V84.3927H200.612V86.9937H195.105V91.3287H201.315V94H191.825V77.6207H201.315V80.292H195.105ZM212.732 94L209.123 87.6264H207.577V94H204.296V77.6442H210.435C211.701 77.6442 212.779 77.8707 213.669 78.3237C214.559 78.7611 215.223 79.3625 215.661 80.128C216.114 80.8778 216.34 81.7214 216.34 82.6587C216.34 83.7366 216.028 84.7129 215.403 85.5878C214.778 86.4469 213.849 87.0406 212.615 87.3686L216.528 94H212.732ZM207.577 85.166H210.318C211.209 85.166 211.872 84.9551 212.31 84.5333C212.747 84.0959 212.966 83.4945 212.966 82.729C212.966 81.9792 212.747 81.4012 212.31 80.995C211.872 80.5732 211.209 80.3623 210.318 80.3623H207.577V85.166ZM224.955 94.164C223.814 94.164 222.783 93.9688 221.862 93.5782C220.955 93.1877 220.237 92.6253 219.706 91.8911C219.175 91.1569 218.901 90.2899 218.886 89.2901H222.4C222.447 89.9618 222.682 90.4929 223.103 90.8835C223.541 91.274 224.134 91.4693 224.884 91.4693C225.65 91.4693 226.251 91.2896 226.689 90.9304C227.126 90.5554 227.345 90.0712 227.345 89.4775C227.345 88.9933 227.196 88.5949 226.899 88.2825C226.603 87.9701 226.228 87.7279 225.775 87.5561C225.337 87.3686 224.728 87.1655 223.947 86.9468C222.885 86.6344 222.018 86.3298 221.346 86.033C220.69 85.7205 220.12 85.2597 219.635 84.6505C219.167 84.0256 218.932 83.1976 218.932 82.1666C218.932 81.1981 219.175 80.3545 219.659 79.6359C220.143 78.9173 220.823 78.3706 221.697 77.9956C222.572 77.6051 223.572 77.4098 224.697 77.4098C226.384 77.4098 227.751 77.8238 228.798 78.6518C229.86 79.4641 230.446 80.6045 230.555 82.0729H226.946C226.915 81.5105 226.673 81.0497 226.22 80.6904C225.783 80.3155 225.197 80.128 224.463 80.128C223.822 80.128 223.307 80.292 222.916 80.6201C222.541 80.9481 222.354 81.4246 222.354 82.0495C222.354 82.4869 222.494 82.854 222.775 83.1508C223.072 83.432 223.431 83.6663 223.853 83.8538C224.291 84.0256 224.9 84.2287 225.681 84.463C226.743 84.7754 227.61 85.0879 228.282 85.4003C228.954 85.7127 229.532 86.1814 230.016 86.8062C230.5 87.4311 230.742 88.2512 230.742 89.2666C230.742 90.1415 230.516 90.9538 230.063 91.7036C229.61 92.4535 228.946 93.0549 228.071 93.5079C227.196 93.9453 226.157 94.164 224.955 94.164Z" fill="black"/>
<defs>
<filter id="filter0_d_11_15" x="0.144123" y="0.135135" width="359.73" height="199.73" filterUnits="userSpaceOnUse" color-interpolation-filters="sRGB">
<feFlood flood-opacity="0" result="BackgroundImageFix"/>
<feColorMatrix in="SourceAlpha" type="matrix" values="0 0 0 0 0 0 0 0 0 0 0 0 0 0 0 0 0 0 127 0" result="hardAlpha"/>
<feOffset/>
<feGaussianBlur stdDeviation="2.93243"/>
<feComposite in2="hardAlpha" operator="out"/>
<feColorMatrix type="matrix" values="0 0 0 0 0 0 0 0 0 0 0 0 0 0 0 0 0 0 0.1 0"/>
<feBlend mode="normal" in2="BackgroundImageFix" result="effect1_dropShadow_11_15"/>
<feBlend mode="normal" in="SourceGraphic" in2="effect1_dropShadow_11_15" result="shape"/>
</filter>
</defs>
</svg>
