<svg xmlns="http://www.w3.org/2000/svg" width="12" height="13" fill="none" viewBox="0 0 12 13"><path fill="#000" d="M5.98875 3.62664C5.38057 3.62664 4.78605 3.80699 4.28037 4.14487C3.77469 4.48276 3.38056 4.96301 3.14782 5.52489C2.91508 6.08677 2.85419 6.70505 2.97284 7.30154C3.09148 7.89804 3.38435 8.44595 3.8144 8.87599C4.24444 9.30604 4.79236 9.59891 5.38885 9.71756C5.98534 9.8362 6.60362 9.77531 7.1655 9.54257C7.72738 9.30983 8.20763 8.9157 8.54552 8.41002C8.8834 7.90434 9.06375 7.30982 9.06375 6.70164C9.06474 6.29755 8.98588 5.89724 8.83169 5.52372C8.67751 5.1502 8.45105 4.81082 8.16531 4.52508C7.87957 4.23934 7.54019 4.01288 7.16667 3.8587C6.79315 3.70451 6.39284 3.62565 5.98875 3.62664ZM5.98875 8.70414C5.59269 8.70414 5.20553 8.5867 4.87622 8.36666C4.54691 8.14662 4.29025 7.83387 4.13868 7.46796C3.98712 7.10206 3.94746 6.69942 4.02473 6.31097C4.10199 5.92253 4.29271 5.56571 4.57277 5.28566C4.85282 5.00561 5.20963 4.81488 5.59808 4.73762C5.98653 4.66035 6.38916 4.70001 6.75507 4.85157C7.12098 5.00314 7.43373 5.2598 7.65377 5.58911C7.87381 5.91842 7.99125 6.30558 7.99125 6.70164C7.99125 7.23274 7.78027 7.74208 7.40473 8.11762C7.02919 8.49316 6.51985 8.70414 5.98875 8.70414ZM9.91125 3.49914C9.91125 3.64748 9.86726 3.79248 9.78485 3.91582C9.70244 4.03916 9.58531 4.13528 9.44826 4.19205C9.31122 4.24882 9.16042 4.26367 9.01493 4.23473C8.86945 4.20579 8.73581 4.13436 8.63092 4.02947C8.52603 3.92458 8.4546 3.79094 8.42566 3.64546C8.39672 3.49997 8.41157 3.34917 8.46834 3.21213C8.52511 3.07508 8.62123 2.95795 8.74457 2.87554C8.86791 2.79313 9.01291 2.74914 9.16125 2.74914C9.36016 2.74914 9.55093 2.82816 9.69158 2.96881C9.83223 3.10946 9.91125 3.30023 9.91125 3.49914ZM11.9438 4.24914C11.9656 3.31676 11.6178 2.41359 10.9762 1.73664C10.3029 1.08691 9.39931 0.730858 8.46375 0.746641C7.48875 0.701641 4.48875 0.701641 3.51375 0.746641C2.58165 0.726457 1.67908 1.07402 1.00125 1.71414C0.359725 2.39109 0.0119355 3.29426 0.03375 4.22664C-0.01125 5.20164 -0.01125 8.20164 0.03375 9.17664C0.0119355 10.109 0.359725 11.0122 1.00125 11.6891C1.67908 12.3293 2.58165 12.6768 3.51375 12.6566C4.50375 12.7166 7.47375 12.7166 8.46375 12.6566C9.39613 12.6785 10.2993 12.3307 10.9762 11.6891C11.6178 11.0122 11.9656 10.109 11.9438 9.17664C11.9888 8.20164 11.9888 5.20164 11.9438 4.22664V4.24914ZM10.6687 10.2491C10.5669 10.5071 10.4132 10.7414 10.2171 10.9375C10.021 11.1336 9.7867 11.2873 9.52875 11.3891C8.36445 11.6245 7.17417 11.7052 5.98875 11.6291C4.80582 11.7054 3.618 11.6247 2.45625 11.3891C2.1983 11.2873 1.96401 11.1336 1.76791 10.9375C1.57181 10.7414 1.41808 10.5071 1.31625 10.2491C1.00125 9.45414 1.06875 7.57914 1.06875 6.70914C1.06875 5.83914 1.00125 3.95664 1.31625 3.16914C1.41521 2.90864 1.56784 2.67186 1.76423 2.47417C1.96063 2.27648 2.1964 2.1223 2.45625 2.02164C3.618 1.78612 4.80582 1.70542 5.98875 1.78164C7.17417 1.70555 8.36445 1.78625 9.52875 2.02164C9.7867 2.12347 10.021 2.2772 10.2171 2.4733C10.4132 2.6694 10.5669 2.90369 10.6687 3.16164C10.9837 3.95664 10.9087 5.83164 10.9087 6.70164C10.9087 7.57164 10.9837 9.45414 10.6687 10.2416V10.2491Z"/></svg>