<svg xmlns="http://www.w3.org/2000/svg" width="14" height="14" fill="none" viewBox="0 0 14 14"><path fill="#000" d="M12 0.25C12.3978 0.25 12.7794 0.408035 13.0607 0.68934C13.342 0.970644 13.5 1.35218 13.5 1.75V12.25C13.5 12.6478 13.342 13.0294 13.0607 13.3107C12.7794 13.592 12.3978 13.75 12 13.75H1.5C1.10218 13.75 0.720644 13.592 0.43934 13.3107C0.158035 13.0294 0 12.6478 0 12.25V1.75C0 1.35218 0.158035 0.970644 0.43934 0.68934C0.720644 0.408035 1.10218 0.25 1.5 0.25H12ZM11.625 11.875V7.9C11.625 7.25155 11.3674 6.62965 10.9089 6.17112C10.4503 5.7126 9.82845 5.455 9.18 5.455C8.5425 5.455 7.8 5.845 7.44 6.43V5.5975H5.3475V11.875H7.44V8.1775C7.44 7.6 7.905 7.1275 8.4825 7.1275C8.76098 7.1275 9.02805 7.23812 9.22496 7.43504C9.42188 7.63195 9.5325 7.89902 9.5325 8.1775V11.875H11.625ZM2.91 4.42C3.24417 4.42 3.56466 4.28725 3.80095 4.05095C4.03725 3.81466 4.17 3.49417 4.17 3.16C4.17 2.4625 3.6075 1.8925 2.91 1.8925C2.57384 1.8925 2.25144 2.02604 2.01374 2.26374C1.77604 2.50144 1.6425 2.82384 1.6425 3.16C1.6425 3.8575 2.2125 4.42 2.91 4.42ZM3.9525 11.875V5.5975H1.875V11.875H3.9525Z"/></svg>