<svg width="13" height="11" viewBox="0 0 13 11" fill="none" xmlns="http://www.w3.org/2000/svg">
<path d="M1.3 10.65C0.9425 10.65 0.636567 10.5228 0.3822 10.2684C0.1274 10.0136 0 9.7075 0 9.35V1.55C0 1.1925 0.1274 0.886566 0.3822 0.6322C0.636567 0.3774 0.9425 0.25 1.3 0.25H11.7C12.0575 0.25 12.3636 0.3774 12.6184 0.6322C12.8728 0.886566 13 1.1925 13 1.55V9.35C13 9.7075 12.8728 10.0136 12.6184 10.2684C12.3636 10.5228 12.0575 10.65 11.7 10.65H1.3ZM11.7 2.85L6.84125 5.88875C6.78708 5.92125 6.7301 5.94552 6.6703 5.96155C6.61093 5.97802 6.55417 5.98625 6.5 5.98625C6.44583 5.98625 6.38907 5.97802 6.3297 5.96155C6.2699 5.94552 6.21292 5.92125 6.15875 5.88875L1.3 2.85V9.35H11.7V2.85ZM6.5 4.8L11.7 1.55H1.3L6.5 4.8ZM1.3 2.85V3.0125V2.05375V2.07V1.55V2.07V2.06155V3.0125V2.85V9.35V2.85Z" fill="black"/>
</svg>
