<svg width="20" height="20" viewBox="0 0 20 20" fill="none" xmlns="http://www.w3.org/2000/svg">
<path d="M19.45 0.565C19.3112 0.425945 19.1464 0.315623 18.9649 0.240351C18.7834 0.165079 18.5889 0.126333 18.3925 0.126333C18.196 0.126333 18.0015 0.165079 17.82 0.240351C17.6386 0.315623 17.4737 0.425945 17.335 0.565L9.99997 7.885L2.66497 0.549999C2.5261 0.411127 2.36123 0.300967 2.17978 0.225809C1.99834 0.150652 1.80387 0.111969 1.60747 0.111969C1.41107 0.111969 1.2166 0.150652 1.03515 0.225809C0.853708 0.300967 0.688842 0.411127 0.549969 0.549999C0.411096 0.688872 0.300936 0.853738 0.225779 1.03518C0.150621 1.21663 0.111938 1.4111 0.111938 1.6075C0.111938 1.8039 0.150621 1.99837 0.225779 2.17981C0.300936 2.36126 0.411096 2.52613 0.549969 2.665L7.88497 10L0.549969 17.335C0.411096 17.4739 0.300936 17.6387 0.225779 17.8202C0.150621 18.0016 0.111938 18.1961 0.111938 18.3925C0.111938 18.5889 0.150621 18.7834 0.225779 18.9648C0.300936 19.1463 0.411096 19.3111 0.549969 19.45C0.688842 19.5889 0.853708 19.699 1.03515 19.7742C1.2166 19.8493 1.41107 19.888 1.60747 19.888C1.80387 19.888 1.99834 19.8493 2.17978 19.7742C2.36123 19.699 2.5261 19.5889 2.66497 19.45L9.99997 12.115L17.335 19.45C17.4738 19.5889 17.6387 19.699 17.8202 19.7742C18.0016 19.8493 18.1961 19.888 18.3925 19.888C18.5889 19.888 18.7833 19.8493 18.9648 19.7742C19.1462 19.699 19.3111 19.5889 19.45 19.45C19.5888 19.3111 19.699 19.1463 19.7742 18.9648C19.8493 18.7834 19.888 18.5889 19.888 18.3925C19.888 18.1961 19.8493 18.0016 19.7742 17.8202C19.699 17.6387 19.5888 17.4739 19.45 17.335L12.115 10L19.45 2.665C20.02 2.095 20.02 1.135 19.45 0.565Z" fill="black"/>
</svg>
