<svg width="28" height="18" viewBox="0 0 28 18" fill="none" xmlns="http://www.w3.org/2000/svg">
<path d="M2 18C1.575 18 1.219 17.856 0.932 17.568C0.644 17.281 0.5 16.925 0.5 16.5C0.5 16.075 0.644 15.719 0.932 15.432C1.219 15.144 1.575 15 2 15H26C26.425 15 26.781 15.144 27.068 15.432C27.356 15.719 27.5 16.075 27.5 16.5C27.5 16.925 27.356 17.281 27.068 17.568C26.781 17.856 26.425 18 26 18H2ZM2 10.5C1.575 10.5 1.219 10.356 0.932 10.068C0.644 9.781 0.5 9.425 0.5 9C0.5 8.575 0.644 8.2185 0.932 7.9305C1.219 7.6435 1.575 7.5 2 7.5H26C26.425 7.5 26.781 7.6435 27.068 7.9305C27.356 8.2185 27.5 8.575 27.5 9C27.5 9.425 27.356 9.781 27.068 10.068C26.781 10.356 26.425 10.5 26 10.5H2ZM2 3C1.575 3 1.219 2.8565 0.932 2.5695C0.644 2.2815 0.5 1.925 0.5 1.5C0.5 1.075 0.644 0.7185 0.932 0.4305C1.219 0.1435 1.575 0 2 0H26C26.425 0 26.781 0.1435 27.068 0.4305C27.356 0.7185 27.5 1.075 27.5 1.5C27.5 1.925 27.356 2.2815 27.068 2.5695C26.781 2.8565 26.425 3 26 3H2Z" fill="black"/>
</svg>
