<svg xmlns="http://www.w3.org/2000/svg" width="1440" height="542" fill="none" viewBox="0 0 1440 542"><g opacity=".19"><rect width="89.929" height="89.929" x=".569" y="1.19" stroke="#151007" stroke-width="1.138"/><rect width="89.929" height="89.929" x="90.498" y="1.19" stroke="#151007" stroke-width="1.138"/><rect width="89.929" height="89.929" x="180.427" y="1.19" stroke="#151007" stroke-width="1.138"/><rect width="89.929" height="89.929" x="270.356" y="1.19" stroke="#151007" stroke-width="1.138"/><rect width="89.929" height="89.929" x="360.285" y="1.19" stroke="#151007" stroke-width="1.138"/><rect width="89.929" height="89.929" x="450.213" y="1.19" stroke="#151007" stroke-width="1.138"/><rect width="89.929" height="89.929" x="540.142" y="1.19" stroke="#151007" stroke-width="1.138"/><rect width="89.929" height="89.929" x="630.071" y="1.19" stroke="#151007" stroke-width="1.138"/><rect width="89.929" height="89.929" x="720" y="1.19" stroke="#151007" stroke-width="1.138"/><rect width="89.929" height="89.929" x="809.929" y="1.19" stroke="#151007" stroke-width="1.138"/><rect width="89.929" height="89.929" x="899.858" y="1.19" stroke="#151007" stroke-width="1.138"/><rect width="89.929" height="89.929" x="989.787" y="1.19" stroke="#151007" stroke-width="1.138"/><rect width="89.929" height="89.929" x="1079.72" y="1.19" stroke="#151007" stroke-width="1.138"/><rect width="89.929" height="89.929" x="1169.64" y="1.19" stroke="#151007" stroke-width="1.138"/><rect width="89.929" height="89.929" x="1259.57" y="1.19" stroke="#151007" stroke-width="1.138"/><rect width="89.929" height="89.929" x="1349.5" y="1.19" stroke="#151007" stroke-width="1.138"/><rect width="89.929" height="89.929" x=".569" y="91.19" stroke="#151007" stroke-width="1.138"/><rect width="89.929" height="89.929" x="90.498" y="91.19" stroke="#151007" stroke-width="1.138"/><rect width="89.929" height="89.929" x="180.427" y="91.19" stroke="#151007" stroke-width="1.138"/><rect width="89.929" height="89.929" x="270.356" y="91.19" stroke="#151007" stroke-width="1.138"/><rect width="89.929" height="89.929" x="360.285" y="91.19" stroke="#151007" stroke-width="1.138"/><rect width="89.929" height="89.929" x="450.213" y="91.19" stroke="#151007" stroke-width="1.138"/><rect width="89.929" height="89.929" x="540.142" y="91.19" stroke="#151007" stroke-width="1.138"/><rect width="89.929" height="89.929" x="630.071" y="91.19" stroke="#151007" stroke-width="1.138"/><rect width="89.929" height="89.929" x="720" y="91.19" stroke="#151007" stroke-width="1.138"/><rect width="89.929" height="89.929" x="809.929" y="91.19" stroke="#151007" stroke-width="1.138"/><rect width="89.929" height="89.929" x="899.858" y="91.19" stroke="#151007" stroke-width="1.138"/><rect width="89.929" height="89.929" x="989.787" y="91.19" stroke="#151007" stroke-width="1.138"/><rect width="89.929" height="89.929" x="1079.72" y="91.19" stroke="#151007" stroke-width="1.138"/><rect width="89.929" height="89.929" x="1169.64" y="91.19" stroke="#151007" stroke-width="1.138"/><rect width="89.929" height="89.929" x="1259.57" y="91.19" stroke="#151007" stroke-width="1.138"/><rect width="89.929" height="89.929" x="1349.5" y="91.19" stroke="#151007" stroke-width="1.138"/><rect width="89.929" height="89.929" x=".569" y="181.19" stroke="#151007" stroke-width="1.138"/><rect width="89.929" height="89.929" x="90.498" y="181.19" stroke="#151007" stroke-width="1.138"/><rect width="89.929" height="89.929" x="180.427" y="181.19" stroke="#151007" stroke-width="1.138"/><rect width="89.929" height="89.929" x="270.356" y="181.19" stroke="#151007" stroke-width="1.138"/><rect width="89.929" height="89.929" x="360.285" y="181.19" stroke="#151007" stroke-width="1.138"/><rect width="89.929" height="89.929" x="450.213" y="181.19" stroke="#151007" stroke-width="1.138"/><rect width="89.929" height="89.929" x="540.142" y="181.19" stroke="#151007" stroke-width="1.138"/><rect width="89.929" height="89.929" x="630.071" y="181.19" stroke="#151007" stroke-width="1.138"/><rect width="89.929" height="89.929" x="720" y="181.19" stroke="#151007" stroke-width="1.138"/><rect width="89.929" height="89.929" x="809.929" y="181.19" stroke="#151007" stroke-width="1.138"/><rect width="89.929" height="89.929" x="899.858" y="181.19" stroke="#151007" stroke-width="1.138"/><rect width="89.929" height="89.929" x="989.787" y="181.19" stroke="#151007" stroke-width="1.138"/><rect width="89.929" height="89.929" x="1079.72" y="181.19" stroke="#151007" stroke-width="1.138"/><rect width="89.929" height="89.929" x="1169.64" y="181.19" stroke="#151007" stroke-width="1.138"/><rect width="89.929" height="89.929" x="1259.57" y="181.19" stroke="#151007" stroke-width="1.138"/><rect width="89.929" height="89.929" x="1349.5" y="181.19" stroke="#151007" stroke-width="1.138"/><rect width="89.929" height="89.929" x=".569" y="271.19" stroke="#151007" stroke-width="1.138"/><rect width="89.929" height="89.929" x="90.498" y="271.19" stroke="#151007" stroke-width="1.138"/><rect width="89.929" height="89.929" x="180.427" y="271.19" stroke="#151007" stroke-width="1.138"/><rect width="89.929" height="89.929" x="270.356" y="271.19" stroke="#151007" stroke-width="1.138"/><rect width="89.929" height="89.929" x="360.285" y="271.19" stroke="#151007" stroke-width="1.138"/><rect width="89.929" height="89.929" x="450.213" y="271.19" stroke="#151007" stroke-width="1.138"/><rect width="89.929" height="89.929" x="540.142" y="271.19" stroke="#151007" stroke-width="1.138"/><rect width="89.929" height="89.929" x="630.071" y="271.19" stroke="#151007" stroke-width="1.138"/><rect width="89.929" height="89.929" x="720" y="271.19" stroke="#151007" stroke-width="1.138"/><rect width="89.929" height="89.929" x="809.929" y="271.19" stroke="#151007" stroke-width="1.138"/><rect width="89.929" height="89.929" x="899.858" y="271.19" stroke="#151007" stroke-width="1.138"/><rect width="89.929" height="89.929" x="989.787" y="271.19" stroke="#151007" stroke-width="1.138"/><rect width="89.929" height="89.929" x="1079.72" y="271.19" stroke="#151007" stroke-width="1.138"/><rect width="89.929" height="89.929" x="1169.64" y="271.19" stroke="#151007" stroke-width="1.138"/><rect width="89.929" height="89.929" x="1259.57" y="271.19" stroke="#151007" stroke-width="1.138"/><rect width="89.929" height="89.929" x="1349.5" y="271.19" stroke="#151007" stroke-width="1.138"/><rect width="89.929" height="89.929" x=".569" y="361.19" stroke="#151007" stroke-width="1.138"/><rect width="89.929" height="89.929" x="90.498" y="361.19" stroke="#151007" stroke-width="1.138"/><rect width="89.929" height="89.929" x="180.427" y="361.19" stroke="#151007" stroke-width="1.138"/><rect width="89.929" height="89.929" x="270.356" y="361.19" stroke="#151007" stroke-width="1.138"/><rect width="89.929" height="89.929" x="360.285" y="361.19" stroke="#151007" stroke-width="1.138"/><rect width="89.929" height="89.929" x="450.213" y="361.19" stroke="#151007" stroke-width="1.138"/><rect width="89.929" height="89.929" x="540.142" y="361.19" stroke="#151007" stroke-width="1.138"/><rect width="89.929" height="89.929" x="630.071" y="361.19" stroke="#151007" stroke-width="1.138"/><rect width="89.929" height="89.929" x="720" y="361.19" stroke="#151007" stroke-width="1.138"/><rect width="89.929" height="89.929" x="809.929" y="361.19" stroke="#151007" stroke-width="1.138"/><rect width="89.929" height="89.929" x="899.858" y="361.19" stroke="#151007" stroke-width="1.138"/><rect width="89.929" height="89.929" x="989.787" y="361.19" stroke="#151007" stroke-width="1.138"/><rect width="89.929" height="89.929" x="1079.72" y="361.19" stroke="#151007" stroke-width="1.138"/><rect width="89.929" height="89.929" x="1169.64" y="361.19" stroke="#151007" stroke-width="1.138"/><rect width="89.929" height="89.929" x="1259.57" y="361.19" stroke="#151007" stroke-width="1.138"/><rect width="89.929" height="89.929" x="1349.5" y="361.19" stroke="#151007" stroke-width="1.138"/><rect width="89.929" height="89.929" x=".569" y="451.19" stroke="#151007" stroke-width="1.138"/><rect width="89.929" height="89.929" x="90.498" y="451.19" stroke="#151007" stroke-width="1.138"/><rect width="89.929" height="89.929" x="180.427" y="451.19" stroke="#151007" stroke-width="1.138"/><rect width="89.929" height="89.929" x="270.356" y="451.19" stroke="#151007" stroke-width="1.138"/><rect width="89.929" height="89.929" x="360.285" y="451.19" stroke="#151007" stroke-width="1.138"/><rect width="89.929" height="89.929" x="450.213" y="451.19" stroke="#151007" stroke-width="1.138"/><rect width="89.929" height="89.929" x="540.142" y="451.19" stroke="#151007" stroke-width="1.138"/><rect width="89.929" height="89.929" x="630.071" y="451.19" stroke="#151007" stroke-width="1.138"/><rect width="89.929" height="89.929" x="720" y="451.19" stroke="#151007" stroke-width="1.138"/><rect width="89.929" height="89.929" x="809.929" y="451.19" stroke="#151007" stroke-width="1.138"/><rect width="89.929" height="89.929" x="899.858" y="451.19" stroke="#151007" stroke-width="1.138"/><rect width="89.929" height="89.929" x="989.787" y="451.19" stroke="#151007" stroke-width="1.138"/><rect width="89.929" height="89.929" x="1079.72" y="451.19" stroke="#151007" stroke-width="1.138"/><rect width="89.929" height="89.929" x="1169.64" y="451.19" stroke="#151007" stroke-width="1.138"/><rect width="89.929" height="89.929" x="1259.57" y="451.19" stroke="#151007" stroke-width="1.138"/><rect width="89.929" height="89.929" x="1349.5" y="451.19" stroke="#151007" stroke-width="1.138"/></g></svg>